<?xml version="1.0" standalone="yes"?>
<svg xmlns="http://www.w3.org/2000/svg" width="400" height="400">
<path style="fill:#ffffff; stroke:none;" d="M0 0L0 184L35 150L49.3966 134L50 117L3 163C12.2841 143.091 39.2089 133.527 48.9722 114C51.417 109.11 50 101.35 50 96L11 134C18.7757 117.326 40.8061 109.332 48.9722 93C51.417 88.1104 50 80.3504 50 75L30 94L47.686 74L56.3287 58.0934L74 47.686L94 30L75 50C80.3504 50 88.1104 51.417 93 48.9722C109.332 40.8061 117.326 18.7756 134 11L96 50C101.35 50 109.11 51.417 114 48.9722C133.527 39.2089 143.091 12.2839 163 3L117 50L134 49.3966L150 35L184 0L0 0z"/>
<path style="fill:#1c1b1b; stroke:none;" d="M117 50L163 3C156.745 4.75565 152.477 10.523 148 15C137.828 25.1721 125.882 42.5313 113 48.9722C108.336 51.3043 101.097 50 96 50L134 11C116.456 15.9244 108.055 40.9449 92 48.9722C87.3358 51.3043 80.0972 50 75 50L94 30L73 47.686L56.3287 57.1852L45.9414 75L30 94L50 75C50 80.0973 51.3043 87.3358 48.9722 92C40.9449 108.055 15.9244 116.456 11 134L50 96C50 101.097 51.3043 108.336 48.9722 113C42.5313 125.882 25.172 137.828 15 148C10.523 152.477 4.75566 156.745 3 163L50 117C50 121.892 51.1068 128.362 49.3966 133C44.7828 145.514 25.3893 158.611 16 168C10.3948 173.605 1.2658 179.797 0 188L50 139C50 143.612 51.0101 149.624 49.3966 154C44.7828 166.514 25.3893 179.611 16 189C10.3948 194.605 1.2658 200.797 0 209L50 160C50 164.612 51.0101 170.624 49.3966 175C44.9042 187.184 26.1369 199.863 17 209C11.3948 214.605 2.2658 220.797 1 229L50 181L49.3966 197L36 212L4 245L5 246L50 202C50 207.097 51.3043 214.336 48.9722 219C40.5753 235.794 14.1454 244.668 9 263L50 223L48.9722 240L14 277L15 278L50 244C50 249.992 51.4728 257.941 47.6821 263C41.5064 271.242 21.8403 282.282 22 293L50 266L51.1836 280L29 306L54 284.167L64 287.465L81 290L174 290C170.553 299.12 169.551 315.5 159 319.397C154.626 321.012 148.61 320 144 320L163 300C153.56 301.457 148.234 312.261 141 317.682C136.538 321.025 130.605 318.057 126.518 321.028C122.2 324.166 126.561 331.172 123.512 335.285C114.264 347.763 99.979 356.253 91 369C96.5998 369.083 100.245 363.755 104 360C111.693 352.308 119.097 343.271 128 337L135 345L114 366C110.453 369.548 105.922 372.744 106 378C116.335 370.72 126 352.108 138 348.404C144.531 346.387 158.55 350 166 350L228 350C237.847 350 249.344 351.636 259 349.656C267.485 347.916 283.066 324.807 271 320L290 300C279.965 301.549 275.121 313.27 267 318.397C262.408 321.295 255.217 320 250 320L269 300C258.375 301.64 254.11 314.418 245 318.972C229.901 326.521 229.243 298.596 226 290L312 290C324.976 290 338.617 291.697 346.532 278.996C354.743 265.819 350 241.072 350 226L350 97C350 79.5707 352.857 52.4436 329 50L330 47L308 50L319 38L304 48.3966L287 50L306 29L283 48.3966L266 50L293 22C282.282 21.8403 271.242 41.5064 263 47.6821C257.941 51.4728 249.992 50 244 50L278 15L277 14L240 48.9722L223 50L263 9C244.668 14.1454 235.794 40.5753 219 48.9722C214.336 51.3043 207.097 50 202 50L246 5L245 4L212 36L197 49.3966L181 50L229 1C220.797 2.26581 214.605 11.3948 209 17C199.863 26.137 187.185 44.9042 175 49.3966C170.624 51.0101 164.612 50 160 50L209 0C200.797 1.26581 194.605 10.3948 189 16C179.611 25.3894 166.514 44.7827 154 49.3966C149.624 51.0101 143.612 50 139 50L188 0C179.797 1.26581 173.605 10.3948 168 16C158.611 25.3894 145.514 44.7827 133 49.3966C128.362 51.1068 121.892 50 117 50z"/>
<path style="fill:#ffffff; stroke:none;" d="M139 50L155 49.3966L171 35L205 0L189 0.603394L173 15L139 50M160 50C164.892 50 171.362 51.1068 176 49.3966C188.514 44.7827 201.611 25.3894 211 16C216.237 10.7633 221.68 3.05453 229 1L181 50L198 49.3966L213 36L245 4L246 5L202 50C207.35 50 215.11 51.417 220 48.9722C237.131 40.4065 245.517 17.153 263 9L223 50L240 49.3966L253 38L277 14L278 15L244 50C249.685 50 258.011 51.5464 263 48.3966C273.43 41.8121 280.711 24.805 293 22L266 50L283 48.9722L306 29L287 50L304 48.9722L319 38L308 50C315.783 50 323 50.8506 330 47L329 50C352.458 54.1841 350 77.9025 350 96L350 226C350 241.292 354.718 265.875 345.895 278.996C337.48 291.511 324.227 290 311 290L227 290L234 320L246 318.972L269 300L250 320L268 318.397L290 300L271 320C282.275 326.835 268.214 347.372 259 349.682C249.712 352.011 237.572 350 228 350L163 350C156.075 350 143.031 346.587 137 348.407C133.077 349.59 129.791 354.209 127 357L106 378C108.9 365.294 127.544 355.585 135 345L128 337C114.004 343.527 106.073 365.559 91 369L123.593 336L126.553 321.603L142 317.682L163 300L144 320C149.074 320 156.363 321.321 160.996 318.972C169.532 314.644 171.838 298.621 173 290L80 290L65 288.095L54 283.331L29 306L51.8673 280L50 266L22 293C24.805 280.711 41.8121 273.43 48.3966 263C51.5464 258.011 50 249.685 50 244L15 278L14 277L38 253L49.3966 240L50 223L9 263C17.1531 245.517 40.4065 237.131 48.9722 220C51.417 215.11 50 207.35 50 202L5 246L4 245L36 213L49.3966 198L50 181L1 229C3.05453 221.68 10.7633 216.237 16 211C25.3894 201.611 44.7828 188.514 49.3966 176C51.1068 171.362 50 164.892 50 160L15 194L0.603395 210L0 228L0 267L0 400L130 400L168 400C173.431 400 180.85 401.295 186 399.397C203.778 392.842 211.504 365.191 230 360L191 400C196.097 400 203.336 401.304 208 398.972C224.424 390.76 233.062 365.035 251 360L212 400L400 400L400 212L360 251C365.035 233.062 390.76 224.424 398.972 208C401.304 203.336 400 196.097 400 191L360 230C365.191 211.504 392.842 203.778 399.397 186C401.295 180.85 400 173.431 400 168L400 130L400 0L267 0L228 0L210 0.603394L194 15L160 50z"/>
<path style="fill:#1c1b1b; stroke:none;" d="M134 10L135 11L134 10M94 29L95 30L94 29z"/>
<path style="fill:#ffffff; stroke:none;" d="M60 250L83 248.972L106 230L87 250L105 248.397L127 230L108 250L125 249.397L146 230L146 229C139.752 222.775 136.898 220.351 130 227C133.354 214.899 141.896 201.423 153 194.756C155.842 193.05 159.229 193.494 162 191.593C167.34 187.929 170.418 181.502 177 180C169.463 187.537 165.498 194.857 159.566 203C156.886 206.68 150.931 210.112 150.466 215C149.779 222.225 163.616 225.761 160.632 232.891C157.85 239.538 151.067 233.859 148 231L147 231L129 250C142.961 250 146.745 247.928 158 240L150 250C155.35 250 163.11 251.417 168 248.972C177.599 244.173 180.112 235.304 184.652 227C188.342 220.251 194.016 214.147 198.627 208C203.23 201.862 211.137 187.99 218 199L237 182L212.3 208L192.536 233.707L183 237.628L171 250L196 246L193 250L209 249.397L222 238L248 212L248 211L240 203L239 203L218 224C236.696 194.105 267.948 171.052 293 146C303.026 135.974 319.988 125.114 320 110L332 110L330 120C318.036 120.042 310.908 131.092 303 139L248 194L248 195L256 203L257 203L303 157C311.581 148.419 319.999 142.745 320 130L333 130L330 140C320.834 140.108 316.102 146.898 310 153L276 187C271.357 191.643 263.598 197.023 260.752 203C257.984 208.812 267.171 212.08 262.81 219C255.309 230.903 243.02 238.614 235 250C240.172 250 247.1 251.203 252 249.397C262.883 245.384 273.851 229.149 282 221L280 210L291 212L322 181L320 170L331 172L335 170L330 180C317.936 180.909 305.155 199.79 297.001 208C293.291 211.736 290.406 214.615 290 220C278.474 220.869 262.405 240.907 256 250L274 248.972L296 230L277 250L295 248.972L317 230L298 250L317 248.397L339 230L320 250C325.155 250 335.873 252.085 338.972 246.852C341.118 243.228 340 237.051 340 233L340 201L340 81C332.463 86.3097 330.001 91.0098 330 100L318 100L320 90C334.091 89.9502 348.824 69.754 330.996 61.9946C324.274 59.0687 316.135 60 309 60L269 60L126 60C111.334 60 96.6659 59.9301 82 60.0008C75.0873 60.0341 67.3382 60.8234 63.1474 67.0934C55.0834 79.1581 60 104.997 60 119L60 250z"/>
<path style="fill:#ababab; stroke:none;" d="M325 60L325 61L328 61L325 60z"/>
<path style="fill:#5f696d; stroke:none;" d="M328.667 60.3333L329.333 60.6667L328.667 60.3333z"/>
<path style="fill:#ababab; stroke:none;" d="M330 61L331 62L330 61z"/>
<path style="fill:#5f696d; stroke:none;" d="M331 61L332 62L331 61z"/>
<path style="fill:#ababab; stroke:none;" d="M332 62L333 63L332 62z"/>
<path style="fill:#5f696d; stroke:none;" d="M333 62L334 63L333 62M334 63L335 64L334 63z"/>
<path style="fill:#ababab; stroke:none;" d="M347 63L348 64L347 63z"/>
<path style="fill:#5f696d; stroke:none;" d="M335 64L336 65L335 64M347 64L348 65L347 64M336 65L337 66L336 65z"/>
<path style="fill:#ababab; stroke:none;" d="M348 65L349 66L348 65z"/>
<path style="fill:#5f696d; stroke:none;" d="M337 66L338 67L337 66M348 66L349 67L348 66z"/>
<path style="fill:#ababab; stroke:none;" d="M337 67L338 68L337 67z"/>
<path style="fill:#5f696d; stroke:none;" d="M338 68L339 69L338 68z"/>
<path style="fill:#ababab; stroke:none;" d="M349.333 68.6667L349.667 69.3333L349.333 68.6667M338 69L339 70L338 69z"/>
<path style="fill:#1c1b1b; stroke:none;" d="M70 90L70 100L80 100C80 96.2325 81.4128 90.9456 77 90L96 70L70 90M90 90L85 100L100 100C99.9983 85.0026 109.881 81.5255 118 70C106.015 71.8493 101.985 88.1507 90 90M110 90L106 100L120 100C120.002 85.5825 131.331 80.8874 139 70C126.701 71.8978 122.716 89.0414 110 90M130 90L127 100L140 100C140.011 85.9952 152.568 80.55 160 70C147.326 71.9556 143.459 89.5633 130 90M172 77L181 70L172 77z"/>
<path style="fill:#1fade3; stroke:none;" d="M185 167C185 170.403 184.126 175.724 186.742 178.397C189.978 181.702 208.913 181.488 212.682 178.972C216.301 176.557 213.317 170.115 217.318 168.407C220.615 167 223.858 171.153 227 171.627C231.928 172.371 236.819 167.14 239.91 163.961C242.811 160.978 247.32 156.589 246.627 152C246.151 148.843 241.303 144.779 243.851 141.603C245.916 139.03 250.118 140.685 252.682 138.972C256.735 136.265 256.796 115.07 253.397 111.742C250.724 109.126 245.403 110 242 110C242.838 105.474 246.56 101.397 246.743 97C247.007 90.6736 235.07 78.2797 229.004 77.4267C224.321 76.7682 221.449 83.9105 217.314 82.5031C213.297 81.136 216.154 74.4386 213.972 71.7423C210.907 67.9542 192.574 69.0342 188.133 70.3179C182.286 72.0082 187.19 79.9472 182.678 81.5038C179.125 82.7299 175.684 77.4729 172 77.3765C166.064 77.2212 154.289 89.6385 152.647 95C151.117 99.9983 157.968 103.374 156.504 107.682C155.291 111.252 148.957 109.347 146.448 111.603C143.13 114.588 143.621 133.654 145.603 137.682C147.806 142.158 155.905 137.618 157.503 142.314C158.91 146.449 151.768 149.321 152.427 154.004C153.28 160.07 165.674 172.007 172 171.743C176.397 171.56 180.474 167.838 185 167z"/>
<path style="fill:#1c1b1b; stroke:none;" d="M215 78L223 70C218.587 71.243 216.243 73.5872 215 78M234 81L245 70C239.422 70.8607 233.912 75.0844 234 81M243 90C251.017 90.1194 261.601 76.2448 266 70C257.19 71.3594 247.935 82.9942 243 90M260 90L255 102L259 98L270 100L268 89L287 70L260 90M280 90L276 100L290 100C289.998 85.0026 299.881 81.5255 308 70C296.613 73.1963 292.313 89.0718 280 90M300 90L297 100L310 100C310.002 85.5825 321.331 80.8874 329 70C317.201 73.312 313.07 89.576 300 90z"/>
<path style="fill:#5f696d; stroke:none;" d="M339 70L340 71L339 70M349 70L350 71L349 70z"/>
<path style="fill:#1c1b1b; stroke:none;" d="M360 79L360 82L361 82L360 79z"/>
<path style="fill:#ffffff; stroke:none;" d="M195 80C194.993 88.4687 189.763 95.6689 180 95.1767C175.765 94.9632 172.202 89.5485 168.377 94.1674C165.176 98.031 169.979 101.088 170.177 105C170.678 114.951 163.148 119.481 155 121L155 130C163.485 130.024 170.698 135.289 170.177 145C169.783 152.358 165.145 153.01 171 160L172 160L186 146L178 138L177 138L172 140C179.712 130.791 172.261 117.159 182.21 107.21C192.159 97.2607 205.791 104.712 215 97L213 102L213 103L221 111L235 97L235 96C228.01 90.1449 227.358 94.7829 220 95.1775C210.289 95.6982 205.024 88.4853 205 80L195 80z"/>
<path style="fill:#ababab; stroke:none;" d="M215 82L216 83L215 82M217 83L218 84L217 83M205 88L206 89L205 88z"/>
<path style="fill:#1c1b1b; stroke:none;" d="M368 91L360 103C363.655 100.425 370.611 95.8482 368 91z"/>
<path style="fill:#ababab; stroke:none;" d="M187 92L188 93L187 92M175 93L176 94L175 93M185 93L186 94L185 93M224 93L225 94L224 93M246 93L247 94L246 93z"/>
<path style="fill:#1c1b1b; stroke:none;" d="M29 94L30 95L29 94z"/>
<path style="fill:#ababab; stroke:none;" d="M176 94L177 95L176 94M183 94L184 95L183 94M216 94L217 95L216 94M223 94L224 95L223 94M178 95L179 96L178 95M181 95L182 96L181 95M218.667 95.3333L219.333 95.6667L218.667 95.3333M221 95L222 96L221 95M247 95L247 98L248 98L247 95z"/>
<path style="fill:#1c1b1b; stroke:none;" d="M151 97L149 100L150 101L151 97M214 97L210 102C213.397 101.846 215.109 100.471 214 97z"/>
<path style="fill:#ababab; stroke:none;" d="M234 97L235 98L234 97M233 98L234 99L233 98M232 99L233 100L232 99M168 100L169 101L168 100M194 100L195 101L194 100z"/>
<path style="fill:#1fade3; stroke:none;" d="M195 100.468C162.424 106.613 172.913 155.634 206 149.381C237.28 143.47 226.73 94.4817 195 100.468z"/>
<path style="fill:#ababab; stroke:none;" d="M231 100L232 101L231 100M169 101L170 102L169 101M230 101L231 102L230 101M188 102L189 103L188 102M170 103L171 104L170 103M229 103L230 104L229 103z"/>
<path style="fill:#1c1b1b; stroke:none;" d="M79 105L70 110L70 120L80 120L79 105z"/>
<path style="fill:#5f696d; stroke:none;" d="M227 105L228 106L227 105z"/>
<path style="fill:#ababab; stroke:none;" d="M228 105L229 106L228 105z"/>
<path style="fill:#1c1b1b; stroke:none;" d="M360 124L378 106C370.764 105.892 361.067 117.087 360 124M99 106L86 120C91.6169 119.133 101.015 112.447 99 106z"/>
<path style="fill:#ababab; stroke:none;" d="M170 106L171 107L170 106z"/>
<path style="fill:#1c1b1b; stroke:none;" d="M222 113L229 106C224.981 107.141 223.141 108.981 222 113M269 106L256 120C261.107 118.567 270.191 111.939 269 106M119 107L87 140C96.9736 138.461 106.155 124.892 112.999 118C116.03 114.948 120.442 111.612 119 107M289 107C281.582 114.418 267.883 123.728 265 134C270.902 129.842 290.52 114.576 289 107z"/>
<path style="fill:#ababab; stroke:none;" d="M169 108L170 109L169 108z"/>
<path style="fill:#ffffff; stroke:none;" d="M183 155C188.681 157.993 192.836 158.872 199 157L195 170L205 170C205.006 161.726 210.414 154.341 220 154.823C224.235 155.037 227.798 160.452 231.623 155.833C234.824 151.969 230.02 148.912 229.823 145C229.341 135.414 236.726 130.006 245 130L245 120L232 124C233.872 117.836 232.993 113.681 230 108C218.586 113.387 227.97 132.66 217.815 142.815C207.66 152.97 188.387 143.586 183 155z"/>
<path style="fill:#1c1b1b; stroke:none;" d="M309 108C292.096 124.904 270.758 141.469 257 161L258 162C272.769 151.596 285.224 135.776 298 123C301.629 119.371 310.131 113.638 309 108M139 109L89 160L90 161L116 136L141 110L139 109z"/>
<path style="fill:#ababab; stroke:none;" d="M242 109L243 110L242 109z"/>
<path style="fill:#1c1b1b; stroke:none;" d="M320 110C319.958 121.964 308.908 129.092 301 137L264 174C257.949 180.051 249.649 186.176 246 194C253.661 191.85 259.516 183.484 265 178L305 138C312.167 130.833 319.124 120.128 330 120L332 110L320 110z"/>
<path style="fill:#ababab; stroke:none;" d="M168 110L169 111L168 110M252 110L253 111L252 110z"/>
<path style="fill:#ffffff; stroke:none;" d="M196 139C199.214 132.107 207.107 124.214 214 121C204.476 93.0045 168.004 129.476 196 139z"/>
<path style="fill:#ababab; stroke:none;" d="M206 111L207 112L206 111M167 112L168 113L167 112M177 113L178 114L177 113M209 113L210 114L209 113M222 113L223 114L222 113M210 114L211 115L210 114M211 115L212 116L211 115M213 118L214 119L213 118M175 119L176 120L175 119M224 119L225 120L224 119z"/>
<path style="fill:#1c1b1b; stroke:none;" d="M233 124L237 120C233.735 119.931 232.931 120.735 233 124M383 119C375.817 126.183 362.794 135.044 360 145C365.775 140.932 384.495 126.453 383 119z"/>
<path style="fill:#ababab; stroke:none;" d="M157 120L158 121L157 120M241 120L242 121L241 120z"/>
<path style="fill:#1c1b1b; stroke:none;" d="M196 139C202.893 135.786 210.786 127.893 214 121C206.888 122.996 197.996 131.888 196 139z"/>
<path style="fill:#ffffff; stroke:none;" d="M213 123L198 139C206.392 138.924 217.149 132.985 213 123z"/>
<path style="fill:#ababab; stroke:none;" d="M232 123L233 124L232 123z"/>
<path style="fill:#1c1b1b; stroke:none;" d="M144 125L106 163L90 182C105.502 171.08 118.589 154.411 132 141C135.779 137.221 145.176 130.863 144 125M79 126L70 130L70 140L80 140L79 126z"/>
<path style="fill:#ababab; stroke:none;" d="M163 130L164 131L163 130M224.333 130.667L224.667 131.333L224.333 130.667z"/>
<path style="fill:#1c1b1b; stroke:none;" d="M320 130C319.992 140.892 313.352 145.648 306 153L273 186C268.123 190.877 257.891 197.695 258 205C276.064 192.275 291.368 172.632 307 157C313.48 150.52 320.181 140.319 330 140L333 130L320 130z"/>
<path style="fill:#ababab; stroke:none;" d="M186 131L187 132L186 131z"/>
<path style="fill:#1c1b1b; stroke:none;" d="M10 134L11 135L10 134z"/>
<path style="fill:#ababab; stroke:none;" d="M188 134L189 135L188 134M233 134L234 135L233 134z"/>
<path style="fill:#1c1b1b; stroke:none;" d="M389 134C380.415 142.585 363.321 154.168 360 166L382.999 144L389 134M176 135L172 140C175.266 139.477 177.687 138.465 176 135z"/>
<path style="fill:#ababab; stroke:none;" d="M189 135L190 136L189 135M190 136L191 137L190 136M232 137L233 138L232 137M193 138L194 139L193 138z"/>
<path style="fill:#ffffff; stroke:none;" d="M49 139L15 173L0.603395 189L0 205C11.105 197.177 20.3998 185.6 30 176C35.9244 170.076 43.9108 164.106 48.3966 157C51.1085 152.704 50.9149 143.563 49 139z"/>
<path style="fill:#ababab; stroke:none;" d="M231 139L232 140L231 139z"/>
<path style="fill:#1c1b1b; stroke:none;" d="M90 203L122 172L153 140L136 154L104 186L90 203z"/>
<path style="fill:#ababab; stroke:none;" d="M157 140L158 141L157 140M169 141L170 142L169 141M230 141L231 142L230 141M158 142L159 143L158 142M170 143L171 144L170 143M229 143L230 144L229 143M170 146L171 147L170 146M229 146L230 147L229 146z"/>
<path style="fill:#1c1b1b; stroke:none;" d="M79 147L70 150L70 160L80 160L79 147M181 154L188 147C183.981 148.141 182.141 149.981 181 154z"/>
<path style="fill:#ababab; stroke:none;" d="M188 147L189 148L188 147M169 148L170 149L169 148M230 148L231 149L230 148M168 149L169 150L168 149M194 149L195 150L194 149M205.667 149.333L206.333 149.667L205.667 149.333z"/>
<path style="fill:#1c1b1b; stroke:none;" d="M320 150C319.999 161.953 313.11 166.89 305 175C292.542 187.458 277.146 199.597 267 214C273.787 214.101 279.48 205.52 284 201L314 171C318.772 166.228 322.894 160.536 330 160L334 150L320 150M360 187C371.181 179.124 389.208 163.42 395 151L369 175L360 187z"/>
<path style="fill:#ababab; stroke:none;" d="M180.333 152.667L180.667 153.333L180.333 152.667M247 152L247 155L248 155L247 152M178 154L179 155L178 154M218 154L219 155L218 154M221 154L222 155L221 154M176 155L177 156L176 155M216 155L217 156L216 155M223 155L224 156L223 155M175 156L176 157L175 156M214 156L215 157L214 156M246 156L247 157L246 156M174 157L175 158L174 157z"/>
<path style="fill:#1c1b1b; stroke:none;" d="M195 162L199 158C195.764 157.931 195.134 158.779 195 162z"/>
<path style="fill:#ababab; stroke:none;" d="M198 157L199 158L198 157M212 157L213 158L212 157M245 157L246 158L245 157z"/>
<path style="fill:#1c1b1b; stroke:none;" d="M90 210L90 225L100 220C101.216 212.118 109.617 206.383 115 201C128.411 187.589 145.08 174.502 156 159C148.949 158.895 142.7 168.3 138 173C124.766 186.234 109.591 210.002 90 210z"/>
<path style="fill:#ababab; stroke:none;" d="M173 158L174 159L173 158M209 158L210 159L209 158M244 158L245 159L244 158M172 159L173 160L172 159M243 159L244 160L243 159z"/>
<path style="fill:#5f696d; stroke:none;" d="M194 160L195 161L194 160z"/>
<path style="fill:#ababab; stroke:none;" d="M257 161L258 162L257 161M184 167L185 168L184 167z"/>
<path style="fill:#1c1b1b; stroke:none;" d="M164 168L121 212L110 210L112 221L110 226L120 220C123.749 206.645 144.279 192.721 154 183C157.447 179.553 166.826 173.247 164 168z"/>
<path style="fill:#ababab; stroke:none;" d="M234 168L235 169L234 168z"/>
<path style="fill:#1c1b1b; stroke:none;" d="M397 168L371 194C366.548 198.452 361.002 202.506 360 209C371.101 201.181 380.413 189.607 390 180C393.215 176.778 398.553 172.968 397 168M70 170L70 181L80 180L81 170L80 169L70 170z"/>
<path style="fill:#ababab; stroke:none;" d="M233 169L234 170L233 169M232 170L233 171L232 170M168 171L169 172L168 171M231 171L232 172L231 171M170 172L170 173L173 173L170 172M227 172L227 173L230 173L227 172M185 177L186 178L185 177z"/>
<path style="fill:#1c1b1b; stroke:none;" d="M161 196L177 180C170.611 179.905 160.905 189.611 161 196z"/>
<path style="fill:#ababab; stroke:none;" d="M194 181L194 184L195 184L194 181z"/>
<path style="fill:#1c1b1b; stroke:none;" d="M193 182L171 206C177.005 203.2 194.425 189.104 193 182M235 182L213 207L237 183L235 182z"/>
<path style="fill:#ababab; stroke:none;" d="M236 182L237 183L236 182z"/>
<path style="fill:#1c1b1b; stroke:none;" d="M399 187L371 215C366.548 219.452 361.002 223.506 360 230C371.471 221.92 381.085 209.919 391 200C394.384 196.614 400.653 192.289 399 187M70 190L70 202L80 200L82 190L70 190M165 233L182 218L209 190C203.118 191.651 199.216 196.784 195 201C185.603 210.397 170.638 220.911 165 233M320 190C320 193.767 318.587 199.054 323 200L310 213C309.054 208.587 303.767 210 300 210C300 213.767 298.587 219.054 303 220L300 226L310 220C312.108 212.488 322.488 202.108 330 200L336 190L330 193C329.054 188.587 323.767 190 320 190z"/>
<path style="fill:#1fade3; stroke:none;" d="M154 193.762C147.317 196.03 133.794 209.101 135.294 216.83C136.439 222.734 151.47 237.838 157.852 235.377C167.992 231.468 150.36 219.757 150.921 215C151.157 213.006 152.789 211.409 154.059 210C156.991 206.744 167.753 189.094 154 193.762M241.148 194.043C230.906 199.738 248.441 209.056 249.079 214.09C249.323 216.018 247.988 217.618 246.847 219C244.856 221.413 230.984 240.756 245.004 236.214C251.084 234.244 266.472 220.07 264.214 213C262.354 207.177 248.243 190.098 241.148 194.043M209.039 195.029C200.388 199.507 189.275 217.482 184.652 226C182.393 230.162 183.405 237.909 189.91 235.998C193.793 234.857 196.358 230.024 198.627 227C204.426 219.271 213.664 210.237 216.817 201.001C218.614 195.738 213.609 192.663 209.039 195.029z"/>
<path style="fill:#1c1b1b; stroke:none;" d="M218 224C225.185 218.939 236.576 209.636 239 201C229.993 205.2 223.138 215.749 218 224z"/>
<path style="fill:#5f696d; stroke:none;" d="M215 203L216 204L215 203M256 203L257 204L256 203M257 204L258 205L257 204z"/>
<path style="fill:#ababab; stroke:none;" d="M258 205L259 206L258 205M171 206L172 207L171 206M259 206L260 207L259 206z"/>
<path style="fill:#5f696d; stroke:none;" d="M212 207L213 208L212 207z"/>
<path style="fill:#ababab; stroke:none;" d="M260 207L261 208L260 207M261 208L262 209L261 208z"/>
<path style="fill:#1c1b1b; stroke:none;" d="M399 208L371 236C366.548 240.452 361.002 244.506 360 251C371.471 242.92 381.085 230.919 391 221C394.384 217.614 400.653 213.289 399 208z"/>
<path style="fill:#ababab; stroke:none;" d="M262 209L263 210L262 209z"/>
<path style="fill:#1c1b1b; stroke:none;" d="M70 210L70 223L80 220L83 210L70 210z"/>
<path style="fill:#ababab; stroke:none;" d="M263 210L264 211L263 210z"/>
<path style="fill:#1c1b1b; stroke:none;" d="M320 210L320 220L324 220L320 227L337 210L330 214L330 210L320 210z"/>
<path style="fill:#5f696d; stroke:none;" d="M248 211L249 212L248 211z"/>
<path style="fill:#ababab; stroke:none;" d="M264.333 211.667L264.667 212.333L264.333 211.667M226 212L227 213L226 212z"/>
<path style="fill:#5f696d; stroke:none;" d="M249 212L250 213L249 212z"/>
<path style="fill:#ffffff; stroke:none;" d="M249 214L214 250C227.486 250 234.668 248.828 243 237C230.222 229.535 250.666 222.306 249 214z"/>
<path style="fill:#5f696d; stroke:none;" d="M267 214L268 215L267 214z"/>
<path style="fill:#ababab; stroke:none;" d="M268 215L269 216L268 215z"/>
<path style="fill:#5f696d; stroke:none;" d="M223 216L224 217L223 216z"/>
<path style="fill:#ababab; stroke:none;" d="M222 217L223 218L222 217M264 217L265 218L264 217M221 218L222 219L221 218z"/>
<path style="fill:#1c1b1b; stroke:none;" d="M130 227L137 219C132.607 220.248 130.697 222.496 130 227z"/>
<path style="fill:#5f696d; stroke:none;" d="M220 220L221 221L220 220z"/>
<path style="fill:#ababab; stroke:none;" d="M219 221L220 222L219 221M218 222L219 223L218 222M160 227L161 228L160 227M145 228L146 229L145 228z"/>
<path style="fill:#5f696d; stroke:none;" d="M146 229L147 230L146 229M273 229L274 230L273 229z"/>
<path style="fill:#1c1b1b; stroke:none;" d="M70 245L85 230C78.024 231.076 71.0764 238.024 70 245z"/>
<path style="fill:#5f696d; stroke:none;" d="M147 230L148 231L147 230z"/>
<path style="fill:#ababab; stroke:none;" d="M161 230L161 233L162 233L161 230z"/>
<path style="fill:#5f696d; stroke:none;" d="M272 230L273 231L272 230z"/>
<path style="fill:#ababab; stroke:none;" d="M148 231L149 232L148 231z"/>
<path style="fill:#5f696d; stroke:none;" d="M271 231L272 232L271 231z"/>
<path style="fill:#ababab; stroke:none;" d="M149 232L150 233L149 232z"/>
<path style="fill:#5f696d; stroke:none;" d="M270 232L271 233L270 232z"/>
<path style="fill:#1c1b1b; stroke:none;" d="M397 232L372 257L360 272C370.737 264.436 379.72 253.284 389 244C392.147 240.851 397.973 236.851 397 232z"/>
<path style="fill:#ababab; stroke:none;" d="M150 233L151 234L150 233z"/>
<path style="fill:#5f696d; stroke:none;" d="M269 233L270 234L269 233z"/>
<path style="fill:#ababab; stroke:none;" d="M151 234L152 235L151 234M160 234L161 235L160 234z"/>
<path style="fill:#5f696d; stroke:none;" d="M268 234L269 235L268 234z"/>
<path style="fill:#ababab; stroke:none;" d="M152 235L153 236L152 235M159 235L160 236L159 235z"/>
<path style="fill:#5f696d; stroke:none;" d="M267 235L268 236L267 235z"/>
<path style="fill:#ababab; stroke:none;" d="M155 236L155 237L158 237L155 236z"/>
<path style="fill:#5f696d; stroke:none;" d="M245 236L246 237L245 236M266 236L267 237L266 236M265 237L266 238L265 237M264 238L265 239L264 238M263 239L264 240L263 239M262 240L263 241L262 240M261 241L262 242L261 241M260 242L261 243L260 242M259 243L260 244L259 243M258 244L259 245L258 244M257 245L258 246L257 245z"/>
<path style="fill:#1c1b1b; stroke:none;" d="M391 259L303 347L259 392C271.692 387.02 282.48 371.52 292 362L362 292L383.999 270C387.059 266.92 391.227 263.63 391 259z"/>
<path style="fill:#ffffff; stroke:none;" d="M60 260C60.3023 267.024 63.6792 281.562 74 278.353C79.0682 276.778 81.7107 271.485 87 270L78 280L96 278.972L108 270L99 280L117 278.972L129 270L120 280L138 278.972L150 270L141 280L159 278.972L172 270L163 280L180 278.972L193 270L184 280L201 278.972L214 270L205 280L223 278.972L235 270L226 280L244 278.972L256 270L247 280L265 278.972L277 270L268 280L286 278.972L299 270L290 280L307 278.972L320 270L311 280C325.176 280 339.27 276.963 340 260L60 260z"/>
<path style="fill:#ababab; stroke:none;" d="M60 265L60 268L61 268L60 265M339 265L339 268L340 268L339 265z"/>
<path style="fill:#5f696d; stroke:none;" d="M60.3333 268.667L60.6667 269.333L60.3333 268.667M339.333 268.667L339.667 269.333L339.333 268.667M349 269L350 270L349 269z"/>
<path style="fill:#ababab; stroke:none;" d="M61 270L62 271L61 270z"/>
<path style="fill:#5f696d; stroke:none;" d="M61 271L62 272L61 271z"/>
<path style="fill:#ababab; stroke:none;" d="M62 272L63 273L62 272z"/>
<path style="fill:#5f696d; stroke:none;" d="M62 273L63 274L62 273M63 274L64 275L63 274M64 275L65 276L64 275M65 276L66 277L65 276M66 277L67 278L66 277z"/>
<path style="fill:#ababab; stroke:none;" d="M67 277L68 278L67 277z"/>
<path style="fill:#5f696d; stroke:none;" d="M68 278L69 279L68 278z"/>
<path style="fill:#ababab; stroke:none;" d="M69 278L70 279L69 278z"/>
<path style="fill:#5f696d; stroke:none;" d="M70 279L71 280L70 279z"/>
<path style="fill:#ababab; stroke:none;" d="M347 282L348 283L347 282z"/>
<path style="fill:#5f696d; stroke:none;" d="M346 283L347 284L346 283z"/>
<path style="fill:#1c1b1b; stroke:none;" d="M345 284L346 285L345 284M344 285L345 286L344 285z"/>
<path style="fill:#5f696d; stroke:none;" d="M343 286L344 287L343 286z"/>
<path style="fill:#ababab; stroke:none;" d="M63 287L64 288L63 287z"/>
<path style="fill:#5f696d; stroke:none;" d="M64 287L65 288L64 287z"/>
<path style="fill:#ababab; stroke:none;" d="M342 287L343 288L342 287M65 288L66 289L65 288z"/>
<path style="fill:#5f696d; stroke:none;" d="M66 288L67 289L66 288z"/>
<path style="fill:#ababab; stroke:none;" d="M68.6667 289.333L69.3333 289.667L68.6667 289.333z"/>
<path style="fill:#5f696d; stroke:none;" d="M70 289L71 290L70 289z"/>
<path style="fill:#1c1b1b; stroke:none;" d="M38 319C46.5378 312.986 62.1354 300.206 65 290C57.3709 293.558 37.8708 310.329 38 319z"/>
<path style="fill:#5f696d; stroke:none;" d="M173 290L174 291L173 290z"/>
<path style="fill:#ffffff; stroke:none;" d="M184 290L177 320C191.273 320 213.238 322.562 218.226 304C219.354 299.803 216.853 294.135 216 290L184 290z"/>
<path style="fill:#5f696d; stroke:none;" d="M226 290L227 291L226 290z"/>
<path style="fill:#ababab; stroke:none;" d="M65 291L66 292L65 291z"/>
<path style="fill:#5f696d; stroke:none;" d="M183 291L184 292L183 291M216 291L217 292L216 291z"/>
<path style="fill:#ababab; stroke:none;" d="M183 292L184 293L183 292M216 292L217 293L216 292M172 293L173 294L172 293M227 293L228 294L227 293z"/>
<path style="fill:#5f696d; stroke:none;" d="M172 294L173 295L172 294M227 294L228 295L227 294M182 295L183 296L182 295M217 295L218 296L217 295z"/>
<path style="fill:#1c1b1b; stroke:none;" d="M376 295L323 348L295 377C304.853 371.728 312.18 362.82 320 355L357 318C362.855 312.145 375.116 303.744 376 295z"/>
<path style="fill:#ababab; stroke:none;" d="M182 296L183 297L182 296M217 296L218 297L217 296M171 297L172 298L171 297M228 297L229 298L228 297z"/>
<path style="fill:#5f696d; stroke:none;" d="M171 298L172 299L171 298M228 298L229 299L228 298z"/>
<path style="fill:#1c1b1b; stroke:none;" d="M47 330C57.1001 325.29 73.2899 309.1 78 299C67.8999 303.71 51.71 319.9 47 330z"/>
<path style="fill:#5f696d; stroke:none;" d="M181 299L182 300L181 299M218 299L219 300L218 299z"/>
<path style="fill:#1c1b1b; stroke:none;" d="M57 341L73 327L99 300C93.1176 301.651 89.2157 306.784 85 311C76.1566 319.843 62.3092 329.615 57 341M67 351L68 352L95 326L120 300L103 314L67 351M79 361C86.9975 358.755 93.2715 349.728 99 344C113.045 329.955 130.565 316.234 142 300C134.448 301.165 129.158 308.842 124 314L94 344C88.8011 349.199 82.1377 354.272 79 361M191 314L205 300C198.625 301.789 193.109 307.795 191 314M239 308L247 300C242.587 301.243 240.243 303.587 239 308M278 330C289.12 328.284 304.684 308.966 311 300C299.88 301.716 284.316 321.034 278 330M232 398C242.885 394.945 253.133 379.867 261 372C283.93 349.07 313.345 326.483 332 300C321.115 303.055 310.867 318.133 303 326C294.121 334.88 285.987 345.074 276.826 353.536C261.876 367.348 243.785 381.27 232 398z"/>
<path style="fill:#ababab; stroke:none;" d="M229 301L230 302L229 301z"/>
<path style="fill:#5f696d; stroke:none;" d="M229 302L230 303L229 302z"/>
<path style="fill:#ababab; stroke:none;" d="M230 305L231 306L230 305z"/>
<path style="fill:#5f696d; stroke:none;" d="M230 306L231 307L230 306z"/>
<path style="fill:#ababab; stroke:none;" d="M238.333 306.667L238.667 307.333L238.333 306.667z"/>
<path style="fill:#ffffff; stroke:none;" d="M219 307L207 320L223 320L219 307z"/>
<path style="fill:#ababab; stroke:none;" d="M231 309L232 310L231 309z"/>
<path style="fill:#5f696d; stroke:none;" d="M231 310L232 311L231 310z"/>
<path style="fill:#ababab; stroke:none;" d="M191 311L192 312L191 311M232 313L233 314L232 313z"/>
<path style="fill:#5f696d; stroke:none;" d="M232 314L233 315L232 314z"/>
<path style="fill:#ababab; stroke:none;" d="M233 317L234 318L233 317z"/>
<path style="fill:#5f696d; stroke:none;" d="M233 318L234 319L233 318z"/>
<path style="fill:#ffffff; stroke:none;" d="M165 319L166 320L165 319z"/>
<path style="fill:#5f696d; stroke:none;" d="M136.333 330.667L136.667 331.333L136.333 330.667z"/>
<path style="fill:#ffffff; stroke:none;" d="M137 330C140.882 341.317 154.177 340 164 340L236 340C245.959 340 257.622 341.124 263 331L137 330z"/>
<path style="fill:#ababab; stroke:none;" d="M230 330L230 331L264 331L230 330M274.333 330.667L274.667 331.333L274.333 330.667z"/>
<path style="fill:#5f696d; stroke:none;" d="M263 331L264 332L263 331z"/>
<path style="fill:#ababab; stroke:none;" d="M137 332L138 333L137 332M262 332L263 333L262 332z"/>
<path style="fill:#5f696d; stroke:none;" d="M137 333L138 334L137 333M262 333L263 334L262 333M273 333L274 334L273 333M138 334L139 335L138 334M261 334L262 335L261 334z"/>
<path style="fill:#ababab; stroke:none;" d="M273 334L274 335L273 334z"/>
<path style="fill:#5f696d; stroke:none;" d="M139 335L140 336L139 335M260 335L261 336L260 335M272 335L273 336L272 335M140 336L141 337L140 336M259 336L260 337L259 336z"/>
<path style="fill:#ababab; stroke:none;" d="M272 336L273 337L272 336z"/>
<path style="fill:#5f696d; stroke:none;" d="M141 337L142 338L141 337z"/>
<path style="fill:#ababab; stroke:none;" d="M142 337L143 338L142 337M257 337L258 338L257 337z"/>
<path style="fill:#5f696d; stroke:none;" d="M258 337L259 338L258 337M271 337L272 338L271 337M143 338L144 339L143 338z"/>
<path style="fill:#ababab; stroke:none;" d="M144 338L145 339L144 338M255 338L256 339L255 338z"/>
<path style="fill:#5f696d; stroke:none;" d="M256 338L257 339L256 338z"/>
<path style="fill:#ababab; stroke:none;" d="M271 338L272 339L271 338z"/>
<path style="fill:#5f696d; stroke:none;" d="M145.667 339.333L146.333 339.667L145.667 339.333z"/>
<path style="fill:#ababab; stroke:none;" d="M147 339L147 340L150 340L147 339M250 339L250 340L253 340L250 339z"/>
<path style="fill:#5f696d; stroke:none;" d="M253.667 339.333L254.333 339.667L253.667 339.333M270 339L271 340L270 339z"/>
<path style="fill:#ababab; stroke:none;" d="M270 340L271 341L270 340M138 347L139 348L138 347z"/>
<path style="fill:#5f696d; stroke:none;" d="M139 347L140 348L139 347z"/>
<path style="fill:#ababab; stroke:none;" d="M140 348L141 349L140 348z"/>
<path style="fill:#5f696d; stroke:none;" d="M141 348L142 349L141 348z"/>
<path style="fill:#ababab; stroke:none;" d="M281 348L282 349L281 348M143.667 349.333L144.333 349.667L143.667 349.333z"/>
<path style="fill:#5f696d; stroke:none;" d="M145 349L146 350L145 349z"/>
<path style="fill:#ababab; stroke:none;" d="M260.667 349.333L261.333 349.667L260.667 349.333M278 352L279 353L278 352M277 353L278 354L277 353M146 356L147 357L146 356M273 356L274 357L273 356z"/>
<path style="fill:#1c1b1b; stroke:none;" d="M119 384C129.206 381.135 141.986 365.538 148 357C137.794 359.865 125.014 375.462 119 384M134 390C144.97 386.921 159.518 369.202 166 360C155.03 363.079 140.482 380.798 134 390M151 395C163.42 389.208 179.124 371.181 187 360L175 369L151 395M168 398L182 388L209 360L195 370L168 398M187 400C193.494 398.998 197.548 393.452 202 389C211.282 379.718 222.436 370.738 230 360C223.506 361.002 219.452 366.548 215 371C205.717 380.283 194.564 389.262 187 400M208 400C214.494 398.998 218.548 393.452 223 389C232.282 379.718 243.436 370.738 251 360C244.506 361.002 240.452 366.548 236 371C226.718 380.283 215.564 389.262 208 400z"/>
</svg>
