<svg xmlns="http://www.w3.org/2000/svg" xmlns:xlink="http://www.w3.org/1999/xlink" width="48" height="48"><defs><linearGradient id="b" x1="992.183" x2="1019.298" y1="516.081" y2="545.959" gradientTransform="translate(-1522.705 211.343) scale(1.53785)" gradientUnits="userSpaceOnUse" xlink:href="#a"/><linearGradient id="a"><stop offset="0" stop-color="#ff1679"/><stop offset="1" stop-color="#ff770b"/></linearGradient></defs><g transform="translate(0 -1004.362)"><rect width="48" height="48" y="1004.362" fill="url(#b)" rx="10.144" ry="10.144"/><path style="line-height:normal;-inkscape-font-specification:Sans;text-indent:0;text-align:start;text-decoration-line:none;text-transform:none;block-progression:tb;marker:none" fill="#fff" d="M9 1013.362h30v3H9zm1.5 1a.5.5 0 1 0 0 1 .5.5 0 0 0 0-1zm2 0a.5.5 0 1 0 0 1 .5.5 0 0 0 0-1zm2 0a.5.5 0 1 0 0 1 .5.5 0 0 0 0-1zm-5.5 3h30v26h-6V1039.581c-.014-1.133-.494-2.208-1.313-2.907-.246-.21-.573-.38-.78-.5l-.907-.53v-10.563c0-2.142-1.25-4.024-3.063-5a5.488 5.488 0 0 0-.375-.188 7.165 7.165 0 0 0-.375-.156 6.188 6.188 0 0 0-2.187-.375c-3.299 0-6 2.546-6 5.719v10.594l-.563.312c-.35.202-.934.52-1.312.906a3.933 3.933 0 0 0-1.094 2.281v.031c-.041.329-.031.744-.031 1v3.157H9zm15 3a5.226 5.226 0 0 1 2.156.438c.112.05.206.099.313.156 1.512.814 2.531 2.364 2.531 4.125v10l-1.625-.938c-.47-.27-.75-.753-.75-1.28v-1.25c.079-.084.178-.162.25-.25.704-.868 1.125-1.981 1.125-3.095v-3.437a.516.516 0 0 0-.375-.5c-.685-.16-1.315-.348-1.75-.687-.011-.01-.02-.023-.031-.031a.499.499 0 0 0-.188-.062.447.447 0 0 0-.093-.031c-.145-.057-.284-.125-.438-.125-.258 0-.534.09-.75.25-.008.01-.023-.01-.031 0-.234.168-.891.297-1.625.312-.748.015-1.557-.03-2.188-.03a.52.52 0 0 0-.5.437l-.031.28a.493.493 0 0 0 0 .061v3.562c0 1.114.42 2.228 1.125 3.094.072.09.171.167.25.25v.75c0 .827-.455 1.61-1.188 2.031l-1.187.689v-10c0-2.608 2.21-4.719 5-4.719zm1.125 4.031c.049 0 .082 0 .125.031.02.012.041.022.063.031.02.012.04.022.062.031.02.012.041.022.063.031.008.01.023-.01.03 0 .473.317 1 .513 1.532.657v3.093c0 .848-.345 1.779-.906 2.469s-1.308 1.125-2.094 1.125c-.786 0-1.533-.435-2.094-1.125-.56-.688-.906-1.62-.906-2.468v-3.343c.524.016 1.106.044 1.75.03.817-.015 1.617-.062 2.219-.53.042-.034.107-.032.156-.032zm-2.75 8.032c.496.279 1.034.437 1.625.437s1.129-.158 1.625-.437v.437a2.49 2.49 0 0 0 1.25 2.156l.75.438v.03a3.688 3.688 0 0 1-7.375 0l.438-.25a3.335 3.335 0 0 0 1.687-2.812zm6.188 3.562 1.843 1.063c.196.112.52.316.625.406.584.498.958 1.27.969 2.125V1043.362h-1.906v-1.593h-1v1.593H18.625v-1.593h-1v1.593H16v-3.156c0-.263.008-.72.031-.906a2.972 2.972 0 0 1 .813-1.719c.178-.181.751-.522 1.093-.719l1.375-.812c.277 2.318 2.236 4.125 4.625 4.125 2.41 0 4.377-1.841 4.625-4.188z" color="#000" font-family="Sans" font-weight="400" overflow="visible"/></g></svg>