<?xml version="1.0" standalone="yes"?>
<svg xmlns="http://www.w3.org/2000/svg" width="500" height="500">
<path style="fill:#fbfbf9; stroke:none;" d="M0 0L0 500L500 500L500 0L0 0z"/>
<path style="fill:#070707; stroke:none;" d="M25 172L25 312L76 312L76 311L26 311L26 173L474 173L474 311L424 311L424 312L475 312L475 172L25 172z"/>
<path style="fill:#a0d7d8; stroke:none;" d="M150 211L151 212L150 211z"/>
<path style="fill:#14a0a5; stroke:none;" d="M150 212L150 213L155 214C155 224.883 159.993 252.772 150 259L150 260L163 260L163 258C154.741 255.493 156.264 236.525 162.189 231.804C168.058 227.127 176.346 229.191 177.772 237C178.302 239.904 178 243.061 178 246L178 260L186 260L186 258C173.697 254.265 189.337 218.4 165.002 227.562C162.29 228.583 160.214 230.187 158 232L158 211L150 212z"/>
<path style="fill:#a0d7d8; stroke:none;" d="M158 211L158 232L159 232L158 211M270 211L271 212L270 211z"/>
<path style="fill:#14a0a5; stroke:none;" d="M270 212L270 213L275 214C275 224.883 279.993 252.772 270 259L270 260L283 260L283 258C277.197 256.238 278 251.224 278 246L278 211L270 212z"/>
<path style="fill:#a0d7d8; stroke:none;" d="M278 211L278 257L279 257C279 243.996 283.01 222.939 278 211M194 212L193 214L194 212z"/>
<path style="fill:#14a0a5; stroke:none;" d="M195.188 213.457C193.321 214.176 193.575 217.512 195.83 217.083C198.182 216.634 197.551 212.547 195.188 213.457z"/>
<path style="fill:#a0d7d8; stroke:none;" d="M196 212L197 213L196 212M150 213L151 214L150 213M270 213L271 214L270 213M198 214L198 217L199 217L198 214M197 217L198 218L197 217M131 226L131 227L134 227L131 226z"/>
<path style="fill:#14a0a5; stroke:none;" d="M146 255C142.396 255.77 138.754 257.965 135 257.692C122.7 256.799 120.823 238.118 129.105 231.434C134.661 226.95 141.455 228.859 142 236L145 236L145 228C140.697 227.166 136.373 225.843 132 226.943C107.143 233.196 128.335 275.535 146 255z"/>
<path style="fill:#a0d7d8; stroke:none;" d="M137 226L137 227L141 227L137 226M166 226L166 227L169 227L166 226M173 226L174 227L173 226M189 226L189 227L197 227C197 234.223 193.205 256.532 202 258L202 257L198 257C198 246.351 203.109 226.05 189 226M211 235L211 234L208 235L208 227L232 227C227.702 225.196 212.461 223.971 208.603 227.028C205.225 229.705 207.113 235.068 211 235M247.667 226.333L248.333 226.667L247.667 226.333z"/>
<path style="fill:#14a0a5; stroke:none;" d="M240 233C250.25 228.244 258.876 228.288 259 242C253.135 242.049 243.753 242.35 239.742 247.394C236.329 251.686 238.863 258.357 244.015 259.682C249.744 261.155 254.741 258.487 259 255C259.928 259.253 261.828 259.861 266 260L266 258L262 258C262 250.206 263.978 239.174 260.427 232.019C256.14 223.379 243.847 225.202 240 233z"/>
<path style="fill:#a0d7d8; stroke:none;" d="M254.667 226.333L255.333 226.667L254.667 226.333M285 226L285 227L293 227L293 250C296.809 240.924 296.36 226.04 285 226M308 229L309 229L316 227C316 234.223 312.205 256.532 321 258L321 257L317 257C317 248.287 318.741 237.527 316.889 229.028C315.921 224.589 308.884 224.873 308 229M325 229L326 229L333 227C330.026 225.286 325.82 225.172 325 229M340.667 226.333L341.333 226.667L340.667 226.333z"/>
<path style="fill:#14a0a5; stroke:none;" d="M333 232L333 227L326 227L326 229L330 229C330 239.824 331.837 250.746 326 260L338 260C333.237 253.24 330.997 245.86 333.434 237.001C334.99 231.342 342.543 226.314 347.486 231.434C352.93 237.072 350 252.702 350 260L358 260L358 258C340.182 252.591 364.205 212.019 370.177 238C370.783 240.64 370.964 243.3 370.996 246C371.052 250.665 371 255.334 371 260L378 260L378 258C375.159 257.138 373.654 256.145 373.148 252.981C372.052 246.125 375.08 237.425 371.543 231.108C366.967 222.935 355.621 226.477 353 234C347.241 225.039 340.719 225.119 333 232z"/>
<path style="fill:#a0d7d8; stroke:none;" d="M345.667 226.333L346.333 226.667L345.667 226.333M359 226L359 227L362 227L359 226M365.667 226.333L366.333 226.667L365.667 226.333M129 227L130 228L129 227M142.667 227.333L143.333 227.667L142.667 227.333M164 227L165 228L164 227M176 227L177 228L176 227z"/>
<path style="fill:#14a0a5; stroke:none;" d="M189 227L189 228L194 229C194 237.892 197.444 253.737 189 259L189 260L202 260L202 258C193.226 255.337 197 234.649 197 227L189 227M208 227L208 235L211 229L228 229C221.143 237.896 209.839 249.054 207 260L232 260L232 252L229 258L211 258L232 227L208 227z"/>
<path style="fill:#a0d7d8; stroke:none;" d="M244 227L245 228L244 227M257 227L258 228L257 227z"/>
<path style="fill:#14a0a5; stroke:none;" d="M285 227L285 228L290 229C290 240.07 287.31 265.094 306 259.348C308.897 258.457 311.429 256.546 314 255L314 260L321 260L321 258C312.226 255.337 316 234.649 316 227L309 227L309 229L313 229C313 235.378 315.079 246.206 311.972 251.907C308.348 258.557 298.99 259.638 294.938 252.956C290.854 246.221 293 234.58 293 227L285 227z"/>
<path style="fill:#a0d7d8; stroke:none;" d="M338 227L339 228L338 227M348 227L349 228L348 227M357 227L358 228L357 227M368 227L369 228L368 227M127 228L128 229L127 228M162 228L163 229L162 228M177 228L178 229L177 228M189 228L190 229L189 228M231 228L232 229L231 228M242 228L243 229L242 228M258 228L259 229L258 228M285 228L286 229L285 228M349 228L350 229L349 228M131 229L132 230L131 229M139.667 229.333L140.333 229.667L139.667 229.333M165 229L166 230L165 229M172.667 229.333L173.333 229.667L172.667 229.333M178 229L179 230L178 229M191 229L191 230L194 230L191 229M211 229L212 230L211 229M227 229L228 230L227 229M241 229L242 230L241 229M246.667 229.333L247.333 229.667L246.667 229.333M254 229L255 230L254 229M259 229L260 230L259 229M287 229L287 230L290 230L287 229M310 229L310 230L313 230L310 229M329 229L330 230L329 229M335 229L336 230L335 229M339 229L340 230L339 229M345 229L346 230L345 229M350 229L351 230L350 229M358.667 229.333L359.333 229.667L358.667 229.333M365 229L366 230L365 229M129 230L130 231L129 230M141 230L141 234L142 234L141 230M163 230L164 231L163 230M174 230L175 231L174 230M230 230L231 231L230 230M240 230L241 231L240 230M244 230L245 231L244 230M333 230L333 232L335 230L333 230M337 230L338 231L337 230M347 230L348 231L347 230M371 230L372 231L371 230M179 231L180 232L179 231M239 231L240 232L239 231M243 231L244 232L243 231M260 231L261 232L260 231M336 231L337 232L336 231M348 231L349 232L348 231M351 231L352 232L351 231M353 231L354 232L353 231M123 232L124 233L123 232M160 232L161 233L160 232M176 232L177 233L176 232M225 232L226 233L225 232M241 232L242 233L241 232M257 232L258 233L257 232M335 232L336 233L335 232M372 232L373 233L372 232M126 233L127 234L126 233M180 233L181 234L180 233M224 233L225 234L224 233M228 233L229 234L228 233M261.333 233.667L261.667 234.333L261.333 233.667M334 233L335 234L334 233M352 233L353 234L352 233M354 233L355 234L354 233M177.333 234.667L177.667 235.333L177.333 234.667M227 234L228 235L227 234M258 234L258 237L259 237L258 234M349 234L350 235L349 234M369 234L370 235L369 234M125 235L126 236L125 235M158 235L158 257L159 257L158 235M223 235L224 236L223 235M333 235L333 257L334 257L333 235M121 236L122 237L121 236M142 236L142 237L145 237L142 236M222 236L223 237L222 236M373 236L373 257L374 257L373 236M124 237L124 241L125 241L124 237M225 237L226 238L225 237M353 237L353 257L354 257L353 237M181 238L181 257L182 257L181 238M224 238L225 239L224 238M220 239L221 240L220 239M370 239L370 260L371 260L370 239M120 240L120 246L121 246L120 240M219 240L220 241L219 240M222 241L223 242L222 241M258 241L259 242L258 241M221 242L222 243L221 242M249 242L249 243L252 243L249 242M217 243L218 244L217 243M246 243L247 244L246 243M216 244L217 245L216 244M243 244L244 245L243 244M251 244L251 245L255 245L251 244z"/>
<path style="fill:#fbfbf9; stroke:none;" d="M259 244C256.306 244.213 253.663 244.61 251 245.084C230.974 248.651 250.412 266.482 257.972 251.981C259.238 249.554 258.991 246.647 259 244z"/>
<path style="fill:#a0d7d8; stroke:none;" d="M219 245L220 246L219 245M241 245L242 246L241 245M247.667 245.333L248.333 245.667L247.667 245.333M124 246L124 249L125 249L124 246M218 246L219 247L218 246M244 246L245 247L244 246M214 247L215 248L214 247M213 248L214 249L213 248M217 248L218 249L217 248M238 248L239 249L238 248M121.333 249.667L121.667 250.333L121.333 249.667M216 249L217 250L216 249M241 249L242 250L241 249M290 249L290 253L291 253L290 249M125 250L126 251L125 250M211 251L212 252L211 251M230.667 251.333L231.333 251.667L230.667 251.333M237.333 251.667L237.667 252.333L237.333 251.667M122 252L123 253L122 252M210 252L211 253L210 252M214 252L215 253L214 252M229 252L230 253L229 252M232 252L232 260L233 260L232 252M258 252L259 253L258 252M312 252L313 253L312 252M213 253L214 254L213 253M257 253L258 254L257 253M294 253L295 254L294 253M311 253L312 254L311 253M123 254L124 255L123 254M127 254L128 255L127 254M144.667 254.333L145.333 254.667L144.667 254.333M209 254L210 255L209 254M241 254L242 255L241 254M256 254L257 255L256 254M291 254L292 255L291 254M310 254L311 255L310 254M128 255L129 256L128 255M142 255L143 256L142 255M208 255L209 256L208 255M238 255L239 256L238 255M255 255L256 256L255 255M258 255L259 256L258 255M312 255L313 259L314 259L312 255M125 256L126 257L125 256M141 256L142 257L141 256M145 256L146 257L145 256M211 256C214.413 259.906 224.07 258 229 258L229 257L211 256M242 256L243 257L242 256M292 256L293 257L292 256M297 256L298 257L297 256M307 256L308 257L307 256M311 256L312 257L311 256M126 257L127 258L126 257M132.667 257.333L133.333 257.667L132.667 257.333M137.667 257.333L138.333 257.667L137.667 257.333M144 257L145 258L144 257M151 257L151 258L154 258L151 257M159 257L159 258L163 258L159 257M182 257L182 258L186 258L182 257M190 257L190 258L193 258L190 257M239 257L240 258L239 257M244 257L245 258L244 257M251 257L252 258L251 257M262 257L262 258L266 258L262 257M271 257L271 258L274 258L271 257M279 257L279 258L283 258L279 257M293 257L294 258L293 257M299.667 257.333L300.333 257.667L299.667 257.333M303 257L303 258L306 258L303 257M326 257L326 258L329 258L326 257M335 257L335 258L338 258L335 257M354 257L354 258L358 258L354 257M374 257L374 258L378 258L374 257M127 258L128 259L127 258M142 258L143 259L142 258M150 258L151 259L150 258M189 258L190 259L189 258M206.333 258.667L206.667 259.333L206.333 258.667M240 258L241 259L240 258M254 258L255 259L254 258M259.333 258.667L259.667 259.333L259.333 258.667M266.333 258.667L266.667 259.333L266.333 258.667M270 258L271 259L270 258M294 258L295 259L294 258M308 258L309 259L308 258M325.333 258.667L325.667 259.333L325.333 258.667M338.333 258.667L338.667 259.333L338.333 258.667M378.333 258.667L378.667 259.333L378.333 258.667M129 259L130 260L129 259M140 259L141 260L140 259M202 259L203 260L202 259M252 259L253 260L252 259M306 259L307 260L306 259M321 259L322 260L321 259M358 259L359 260L358 259M133 260L133 261L138 261L133 260M244 260L244 261L250 261L244 260M298 260L298 261L304 261L298 260z"/>
<path style="fill:#ffb181; stroke:none;" d="M198 300C199.157 306.232 195.958 315.373 204 316L203 299L198 300M214 300C215.913 306.13 213.269 315.397 221 316L220 299L214 300M321 300L321 315L328 316L326 299L321 300M343 300L345 304C339.933 304.578 334.96 309.872 340.318 314.397C342.869 316.551 346.902 315.998 350 316L349 299L343 300M151 300L151 315L158 316L156 310L161 310L159 315L166 316L166 300L159 300L161 306L156 306L158 300L151 300z"/>
<path style="fill:#fbfbf9; stroke:none;" d="M201 300L202 301L201 300M217.667 300.333L218.333 300.667L217.667 300.333M324 300L325 301L324 300M346 300L346 302L348 300L346 300M152 301L152 302L156 302L152 301M160 301L160 302L165 302L160 301M323 303L324 304L323 303M153 304L153 314L154 314L153 304z"/>
<path style="fill:#ffb181; stroke:none;" d="M188 312L187 311L182 313L188 310C186.231 304.965 178.095 301.143 177.287 309.043C176.542 316.327 184.77 317.266 188 312M234.228 305.032C228.078 308.668 233.569 318.539 239.771 314.957C245.787 311.481 240.476 301.339 234.228 305.032M252 304L252 307L257 316L259 316L261 312L266 316L270 304L265 304L265 310L264 310L263 304L260 306L259 306L252 304M282.434 305.032C277.319 308.424 281.902 318.241 287.772 314.953C294.05 311.436 288.481 301.022 282.434 305.032M301 305C302.961 310.256 301.191 315.469 308 316L307 308L311 308L311 304L301 305z"/>
<path style="fill:#fbfbf9; stroke:none;" d="M180 305L178 310L179 310L180 305M184 305L186 307L184 305M235 305L232 311L233 311L235 305M238 305L239 306L238 305M254 305L254 306L257 306L254 305M261 305L260 307L261 305M266.667 305.333L267.333 305.667L266.667 305.333M283 305L282 307L283 305M286 305L286 306L289 307L286 305M304 305L305 306L304 305M307 305L307 306L310 306L307 305M342 305L343 306L342 305M340 306L339 311L340 311L340 306M157 307L157 308L161 308L157 307M236 307L236 313L238 313L238 307L236 307M258 307L260 310L258 307M284 307L284 313C286.669 311.268 286.71 310.058 286 307L284 307M343 307L343 313L344 313L345 307L343 307M281 308L282 309L281 308z"/>
<path style="fill:#a0d7d8; stroke:none;" d="M423 311L424 312L423 311z"/>
<path style="fill:#fbfbf9; stroke:none;" d="M239 312L240 313L239 312M161 313L162 314L161 313M185 313L186 314L185 313M303 313L304 314L303 313M323 313L324 314L323 313z"/>
</svg>
