<?xml version="1.0" standalone="no"?>
<!DOCTYPE svg PUBLIC "-//W3C//DTD SVG 20010904//EN"
 "http://www.w3.org/TR/2001/REC-SVG-20010904/DTD/svg10.dtd">
<svg version="1.0" xmlns="http://www.w3.org/2000/svg"
 width="1280.000000pt" height="1140.000000pt" viewBox="0 0 1280.000000 1140.000000"
 preserveAspectRatio="xMidYMid meet">
<metadata>
Created by potrace 1.15, written by Peter Selinger 2001-2017
</metadata>
<g transform="translate(0.000000,1140.000000) scale(0.100000,-0.100000)"
fill="#000000" stroke="none">
<path d="M6621 11378 c-6 -18 -9 -19 -14 -5 -4 10 -12 17 -19 17 -9 0 -9 -3 0
-12 19 -19 14 -30 -9 -23 -15 5 -19 4 -15 -4 4 -6 15 -11 24 -11 13 0 13 -2
-4 -16 -18 -15 -18 -15 4 -9 21 6 22 4 16 -22 -77 -305 -81 -319 -88 -278 -3
22 -8 99 -11 172 l-5 131 23 -5 c20 -4 21 -4 3 7 -15 10 -16 14 -5 21 7 4 10
11 6 15 -3 4 -14 1 -23 -7 -16 -13 -17 -11 -10 14 4 16 2 27 -4 27 -5 0 -10
-10 -10 -22 l0 -23 -20 25 c-11 14 -20 20 -20 13 0 -6 5 -15 10 -18 18 -11 10
-23 -12 -17 -14 3 -19 2 -14 -6 4 -7 15 -12 24 -12 13 0 13 -2 -4 -16 -18 -15
-18 -15 4 -9 21 6 23 4 17 -14 -3 -12 -2 -21 3 -21 5 0 13 -65 18 -145 5 -79
6 -141 3 -137 -3 4 -29 74 -57 156 -47 133 -50 148 -32 143 11 -3 20 -1 20 4
0 5 -7 9 -16 9 -14 0 -15 2 -3 16 12 15 11 16 -9 10 -21 -7 -22 -5 -16 20 5
19 4 25 -5 20 -6 -4 -11 -15 -11 -24 -1 -16 -2 -16 -14 1 -18 24 -29 21 -15
-4 10 -19 8 -20 -10 -14 -12 4 -21 2 -21 -4 0 -6 10 -11 23 -11 20 -1 21 -2 5
-14 -25 -19 -22 -29 3 -15 20 10 21 9 16 -10 -5 -20 8 -31 15 -11 2 5 26 -58
54 -141 28 -83 48 -147 44 -142 -6 7 -87 123 -173 247 l-20 28 23 -7 c15 -5
20 -4 16 4 -4 6 -15 11 -24 11 -15 1 -14 3 3 17 19 15 19 15 -6 9 -24 -5 -26
-3 -22 22 3 26 3 26 -8 5 -11 -21 -13 -22 -26 -5 -13 16 -13 15 -8 -6 6 -21 4
-23 -14 -17 -12 4 -21 2 -21 -4 0 -6 10 -11 23 -11 20 -1 21 -2 5 -14 -24 -18
-23 -29 2 -16 17 9 20 8 20 -12 0 -18 2 -20 10 -8 5 8 11 12 13 10 2 -3 33
-45 67 -95 35 -49 79 -112 99 -140 45 -62 32 -54 -125 84 -66 57 -118 107
-117 111 2 5 -7 12 -18 15 -20 7 -20 7 -2 21 17 14 17 15 -4 9 -19 -5 -23 -2
-24 17 -1 17 -3 18 -6 6 -6 -23 -19 -23 -27 -2 -4 9 -9 14 -12 11 -3 -3 -1
-14 5 -25 9 -17 7 -19 -17 -15 -26 3 -26 3 -5 -8 l22 -12 -23 -18 c-31 -24
-40 -24 -33 1 3 11 1 20 -4 20 -5 0 -9 -9 -9 -21 0 -21 0 -21 -20 2 -10 13
-19 19 -20 12 0 -6 5 -15 10 -18 18 -11 10 -23 -12 -18 -21 4 -21 3 -5 -7 18
-11 18 -12 0 -27 -17 -13 -16 -14 10 -8 26 5 28 4 22 -16 -5 -14 -4 -19 4 -15
6 4 11 15 11 24 1 15 2 15 11 -2 7 -11 14 -14 18 -8 4 6 89 -38 210 -109 112
-65 206 -120 207 -122 5 -4 -99 -312 -164 -487 -63 -172 -204 -522 -249 -620
-31 -67 -36 -72 -44 -52 -12 30 -23 28 -15 -4 6 -23 5 -24 -14 -14 -11 6 -20
7 -20 2 0 -5 10 -14 23 -20 17 -8 18 -11 5 -11 -9 -1 -20 -6 -24 -12 -5 -9 1
-10 20 -5 l27 7 -19 -38 c-11 -21 -21 -45 -24 -53 -3 -10 -10 -5 -21 17 -21
39 -21 44 -2 37 8 -4 15 -1 15 5 0 6 -7 11 -15 11 -18 0 -20 16 -2 24 6 4 2 4
-10 2 -20 -4 -22 -1 -17 22 l5 27 -15 -25 c-11 -19 -15 -21 -16 -8 0 9 -5 20
-11 24 -8 4 -9 -1 -4 -16 6 -19 4 -21 -17 -15 -21 5 -22 5 -5 -8 21 -17 22
-27 2 -27 -8 0 -15 -4 -15 -10 0 -6 9 -6 24 0 21 8 23 6 19 -13 -4 -17 -3 -19
6 -7 12 17 13 16 39 -36 18 -36 19 -46 9 -73 -6 -17 -14 -31 -18 -31 -8 0 -94
102 -94 113 0 4 -7 12 -15 18 -11 8 -12 12 -2 16 6 2 12 9 12 14 0 6 -9 5 -21
-2 -20 -10 -21 -9 -15 15 4 15 2 26 -4 26 -5 0 -10 -8 -10 -17 -1 -17 -1 -17
-14 0 -18 24 -29 21 -15 -4 10 -19 9 -20 -13 -14 -21 6 -22 5 -5 -8 16 -14 16
-15 -7 -31 -34 -22 -45 -20 -39 7 5 22 5 22 -10 2 -14 -17 -16 -18 -17 -3 0 9
-5 20 -11 24 -8 5 -10 -1 -6 -19 6 -22 4 -25 -16 -20 l-22 4 23 -14 23 -13
-23 -12 c-23 -12 -23 -12 4 -7 23 4 25 2 21 -18 -5 -22 -5 -22 10 -2 15 18 16
18 17 3 0 -10 5 -18 11 -18 5 0 7 5 4 10 -3 6 -3 10 0 10 8 0 189 -140 193
-149 1 -3 -65 -159 -146 -346 -82 -187 -164 -378 -183 -424 -19 -46 -35 -76
-36 -65 -2 10 -16 282 -33 604 -17 322 -37 717 -46 879 -9 161 -12 297 -7 301
4 4 145 99 312 210 259 172 303 198 297 176 -4 -15 -2 -26 4 -26 5 0 10 9 10
20 0 23 15 27 24 5 3 -8 11 -15 17 -15 7 0 5 9 -5 25 -9 14 -15 25 -14 25 2 0
18 -4 36 -9 19 -6 32 -6 32 0 0 5 -11 11 -25 15 -30 7 -32 20 -5 29 11 4 18
11 15 16 -3 5 -18 1 -32 -8 l-26 -17 5 32 c3 18 1 35 -4 38 -4 3 -8 -2 -8 -10
0 -19 -5 -20 -32 -5 -21 11 -21 12 -3 25 29 21 10 28 -21 8 l-27 -18 7 37 c4
23 3 37 -4 37 -5 0 -10 -11 -10 -25 0 -30 -15 -33 -30 -5 -6 11 -16 20 -22 20
-6 0 -3 -11 7 -26 9 -14 14 -29 10 -32 -4 -4 -11 1 -16 11 -6 9 -19 17 -29 17
-24 0 -26 15 -5 24 8 3 15 10 15 16 0 7 -6 8 -19 0 -29 -15 -31 -13 -31 21 0
17 -4 28 -10 24 -5 -3 -10 -18 -10 -33 l-1 -27 -17 28 c-9 15 -20 27 -24 27
-12 0 -10 -8 9 -37 16 -25 16 -25 -2 -20 -11 3 -33 8 -48 11 l-28 7 23 20 c24
21 18 21 -31 2 -10 -5 -12 1 -6 25 4 21 3 32 -4 32 -6 0 -11 -11 -11 -25 0
-32 -14 -32 -28 1 -7 14 -17 22 -22 19 -6 -4 -4 -15 6 -30 l16 -25 -48 5 c-55
6 -64 11 -35 20 12 3 21 11 21 17 0 5 -7 7 -15 4 -8 -3 -21 -8 -28 -11 -10 -4
-13 2 -9 25 2 18 0 30 -7 30 -6 0 -11 -12 -11 -27 l0 -28 -25 30 c-27 33 -34
23 -9 -14 17 -23 16 -23 -15 -16 -37 8 -43 -10 -5 -19 l25 -7 -23 -20 c-23
-20 -17 -21 26 -3 16 6 21 29 -54 -286 -41 -171 -50 -201 -50 -165 0 9 -7 95
-16 189 -8 94 -13 184 -10 200 4 16 1 35 -6 43 -10 12 -6 14 25 8 46 -9 48 0
5 18 -31 13 -32 14 -10 21 12 4 22 12 22 18 0 9 -6 8 -46 -8 -7 -3 -9 6 -6 27
3 22 1 30 -7 25 -6 -4 -11 -17 -11 -29 -1 -22 -1 -22 -21 2 -11 13 -22 21 -26
17 -4 -3 -1 -12 5 -18 20 -20 14 -31 -13 -24 -14 4 -25 2 -25 -4 0 -5 11 -12
25 -16 l25 -6 -26 -25 c-21 -19 -31 -22 -53 -15 -26 9 -26 9 -3 16 12 4 22 12
22 18 0 5 -7 7 -15 4 -8 -3 -21 -8 -28 -11 -10 -4 -12 4 -9 32 2 29 1 34 -7
23 -6 -8 -11 -24 -11 -35 0 -17 -3 -16 -25 10 -27 33 -34 23 -9 -14 17 -23 16
-23 -15 -16 -38 8 -42 -10 -4 -20 l28 -7 -25 -19 c-20 -14 -21 -19 -8 -19 9 0
20 5 23 10 14 22 26 9 20 -20 -4 -19 -3 -30 4 -30 6 0 11 8 11 17 0 9 3 14 6
10 7 -7 144 -380 141 -384 -3 -2 -176 235 -244 332 l-21 31 31 -4 c25 -3 29
-1 17 7 -8 6 -23 11 -32 11 -24 0 -23 17 2 25 11 3 20 11 20 16 0 13 -13 11
-39 -8 l-24 -16 7 36 c4 24 3 37 -4 37 -5 0 -10 -11 -10 -25 0 -30 -15 -33
-30 -5 -6 11 -16 20 -22 20 -6 0 -4 -10 6 -25 21 -32 21 -32 -14 -27 -40 6
-38 -5 3 -16 l32 -9 -27 -13 c-29 -14 -40 -37 -13 -26 8 3 22 9 30 12 11 5 15
-2 16 -27 l1 -34 11 26 c12 26 15 22 147 -159 74 -103 137 -191 139 -196 2 -5
-43 31 -100 80 -57 49 -143 120 -191 159 -56 43 -84 72 -76 76 7 5 -1 13 -23
22 -32 13 -33 14 -11 21 12 4 22 12 22 18 0 6 -8 7 -17 3 -10 -4 -24 -9 -32
-12 -10 -5 -12 1 -6 25 4 21 3 32 -4 32 -6 0 -11 -11 -11 -25 0 -33 -14 -32
-30 3 -7 15 -15 22 -17 15 -2 -7 1 -22 7 -34 11 -20 10 -21 -14 -17 -38 8 -42
-9 -4 -17 27 -6 29 -9 14 -17 -10 -6 -27 -19 -37 -29 -28 -28 -39 -23 -32 11
3 19 1 30 -6 30 -6 0 -11 -11 -11 -25 0 -30 -16 -33 -25 -5 -3 11 -11 20 -17
20 -5 0 -8 -6 -5 -12 20 -51 21 -49 -7 -39 -15 6 -28 7 -31 1 -3 -5 9 -13 27
-18 l33 -9 -27 -13 c-30 -14 -39 -37 -10 -25 9 4 22 9 29 12 7 3 13 -7 16 -24
4 -27 4 -27 12 -5 7 22 8 22 28 5 19 -17 20 -17 14 0 -4 9 -5 17 -3 17 4 0
246 -135 504 -280 l112 -64 0 -70 c1 -39 11 -404 24 -811 13 -407 22 -742 20
-744 -2 -2 -7 5 -10 15 -4 10 -105 259 -226 553 -120 293 -218 536 -218 540 0
4 62 50 137 102 200 137 194 134 187 115 -3 -9 -1 -16 5 -16 6 0 11 5 11 11 0
5 5 7 10 4 6 -3 10 -2 10 4 0 5 6 11 13 14 6 2 4 3 -5 2 -22 -4 -22 -1 -1 21
16 16 16 16 -5 10 -18 -6 -21 -4 -15 10 4 11 3 15 -5 10 -16 -9 -51 15 -45 31
3 7 1 13 -5 13 -5 0 -13 -7 -16 -16 -4 -10 -13 -13 -28 -9 -21 5 -21 5 -6 -8
16 -12 12 -18 -40 -68 -110 -104 -155 -144 -146 -128 21 36 129 169 139 169 5
0 18 14 28 31 14 26 20 29 32 19 9 -7 15 -8 15 -2 0 12 -29 24 -41 16 -5 -3
-9 3 -9 13 0 15 -2 16 -10 3 -9 -13 -11 -13 -21 0 -9 13 -10 12 -5 -2 4 -13 0
-18 -14 -18 -13 0 -18 5 -14 15 5 11 2 13 -12 8 -13 -5 -16 -3 -11 10 3 9 2
17 -3 17 -6 0 -10 -8 -10 -17 0 -15 -2 -14 -16 3 -14 17 -15 17 -10 1 5 -15 1
-18 -21 -15 -19 2 -29 10 -34 28 -6 21 -7 22 -9 5 -1 -11 -4 -14 -7 -7 -2 6
-9 12 -14 12 -4 0 -6 -7 -3 -15 5 -11 1 -14 -12 -9 -14 4 -13 1 5 -14 l24 -20
-29 -133 c-28 -130 -29 -132 -36 -89 -5 25 -10 85 -12 133 -4 74 -2 88 10 83
8 -3 14 -1 14 4 0 6 -4 10 -10 10 -5 0 -6 8 -3 18 6 15 5 15 -10 3 -15 -12
-17 -11 -18 10 0 22 -1 23 -9 4 -5 -11 -9 -14 -9 -7 -1 6 -5 12 -11 12 -5 0
-6 -7 -3 -17 4 -11 3 -14 -5 -9 -7 4 -12 3 -12 -3 0 -5 8 -12 18 -15 10 -3 18
-14 19 -23 0 -10 5 -58 12 -108 18 -144 13 -147 -34 -21 -25 66 -45 121 -45
123 0 1 6 0 13 -3 8 -3 20 2 27 11 8 10 9 15 1 15 -6 0 -11 -5 -11 -10 0 -21
-40 11 -41 33 -1 18 -2 18 -6 4 -4 -14 -8 -16 -19 -6 -12 10 -13 9 -8 -6 5
-13 4 -16 -4 -11 -7 4 -12 2 -12 -3 0 -6 5 -11 11 -11 8 0 7 -5 -1 -15 -11
-13 -10 -14 4 -9 11 4 16 1 16 -12 0 -15 2 -16 9 -5 6 9 13 1 24 -30 8 -24 27
-75 41 -114 31 -81 30 -80 -58 39 -47 64 -62 92 -53 98 8 5 6 8 -7 8 -15 0
-16 3 -6 15 11 13 10 14 -5 8 -14 -5 -17 -3 -12 10 3 9 2 17 -3 17 -6 0 -10
-5 -10 -11 0 -8 -6 -7 -17 2 -15 12 -16 12 -10 -3 4 -11 0 -18 -11 -21 -15 -4
-14 -5 2 -6 16 -1 17 -3 5 -18 -12 -15 -12 -16 4 -10 12 4 17 1 17 -11 0 -13
2 -14 9 -3 6 10 29 -13 85 -88 42 -56 76 -104 76 -107 0 -10 -208 162 -209
174 -1 6 -6 12 -12 12 -5 0 -7 5 -3 12 5 8 2 9 -10 5 -14 -6 -16 -3 -11 16 6
22 6 22 -10 2 -10 -12 -29 -20 -51 -21 -30 -1 -35 2 -31 18 3 10 1 18 -4 18
-5 0 -9 -9 -9 -21 0 -21 0 -21 -20 2 -10 13 -19 19 -20 12 0 -6 5 -15 10 -18
21 -13 9 -23 -15 -12 -25 12 -34 27 -15 27 6 0 10 5 10 10 0 7 -6 7 -20 0 -18
-9 -20 -8 -21 17 l-1 28 -7 -25 c-7 -24 -7 -24 -18 -5 -6 11 -15 17 -19 13 -4
-4 -1 -15 7 -25 12 -15 12 -16 -4 -10 -10 4 -28 7 -40 7 -20 0 -20 0 -1 16 18
14 18 15 -5 8 -21 -5 -23 -3 -18 15 3 11 1 21 -4 21 -5 0 -9 -10 -9 -22 l0
-23 -20 25 c-11 14 -20 20 -20 13 0 -6 5 -15 10 -18 20 -12 9 -21 -21 -17 -20
3 -29 9 -25 18 3 8 -1 14 -9 14 -8 0 -15 7 -15 15 0 8 -6 15 -12 15 -17 1
-131 178 -125 193 7 17 306 189 317 182 5 -3 12 0 16 7 5 8 10 6 15 -8 7 -18
8 -17 8 3 1 12 11 29 23 37 18 13 19 16 6 16 -12 0 -16 6 -12 18 5 14 3 14
-10 -2 -14 -17 -16 -18 -16 -3 0 9 -5 17 -11 17 -6 0 -8 -9 -4 -21 7 -21 7
-21 -18 -3 -22 17 -23 20 -8 32 14 12 14 13 -2 8 -15 -5 -17 -2 -12 17 6 21 5
21 -9 4 -14 -18 -14 -18 -19 0 -4 16 -5 16 -6 -2 -1 -11 -16 -34 -34 -51 -50
-47 -201 -179 -214 -188 -7 -4 24 45 68 109 58 83 84 113 90 103 7 -10 9 -9 9
4 0 10 6 16 13 14 6 -1 9 -1 5 1 -14 8 -9 21 10 26 15 4 15 5 -2 6 -12 1 -16
6 -12 16 3 8 1 15 -3 15 -5 0 -12 -6 -14 -12 -4 -10 -6 -10 -6 0 -1 6 -6 12
-12 12 -6 0 -9 -6 -6 -14 4 -10 -3 -13 -26 -11 -43 4 -45 5 -22 15 17 7 17 9
3 9 -12 1 -15 6 -11 19 6 14 4 15 -9 4 -13 -10 -17 -10 -21 0 -4 9 -6 7 -6 -4
-1 -14 -5 -15 -31 -5 -18 7 -28 17 -26 24 3 7 1 13 -3 13 -5 0 -12 -6 -14 -12
-4 -10 -6 -10 -6 0 -1 6 -6 12 -12 12 -6 0 -8 -7 -5 -16 5 -12 1 -14 -17 -10
-12 3 -16 3 -9 0 17 -8 15 -22 -5 -27 -14 -4 -13 -5 4 -6 21 -1 22 -5 19 -78
-2 -43 -4 -105 -5 -137 0 -33 -4 -57 -7 -53 -4 4 -70 249 -74 274 0 0 10 -1
23 -4 18 -4 19 -3 7 6 -13 10 -13 12 0 22 13 9 12 10 -3 5 -15 -5 -17 -2 -12
17 6 21 5 21 -6 2 -12 -19 -12 -19 -20 0 -7 19 -8 19 -8 1 -1 -12 -6 -16 -16
-12 -8 3 -15 1 -15 -3 0 -5 6 -12 13 -14 6 -3 2 -6 -11 -6 -13 -1 -21 -5 -18
-10 3 -5 15 -7 26 -4 16 4 19 2 14 -13 -4 -11 -3 -15 1 -11 8 6 42 -105 70
-223 3 -14 -22 25 -56 85 -70 125 -78 141 -61 131 7 -4 12 -2 12 3 0 6 -4 11
-9 11 -5 0 -8 15 -6 33 4 30 3 31 -10 13 -12 -16 -15 -16 -15 -4 0 10 -10 15
-31 16 -39 1 -50 11 -21 19 12 3 22 9 22 14 0 12 -7 11 -32 -2 -19 -10 -20 -9
-16 15 5 22 2 26 -13 21 -25 -8 -46 4 -28 16 7 4 10 11 6 15 -4 4 -13 2 -19
-4 -19 -19 -25 -14 -20 19 3 22 1 30 -7 25 -6 -4 -11 -16 -11 -28 0 -19 -1
-19 -20 3 -21 26 -26 19 -10 -12 7 -13 7 -19 0 -19 -5 0 -10 4 -10 9 0 5 -10
11 -22 15 -22 5 -23 6 -3 21 19 16 19 16 -7 10 -25 -5 -28 -2 -29 22 -2 24 -2
25 -6 6 -5 -26 -21 -30 -29 -8 -4 8 -10 15 -15 15 -6 0 -5 -8 1 -19 14 -27 13
-30 -12 -24 -50 11 -52 13 -32 28 22 17 12 20 -16 5 -18 -10 -19 -8 -13 21 4
23 3 30 -5 25 -7 -4 -12 -16 -12 -28 0 -19 -1 -19 -20 3 -20 25 -26 20 -11 -9
8 -15 4 -17 -30 -14 -41 4 -51 15 -23 26 9 4 14 9 11 12 -3 3 -15 1 -26 -6
-19 -10 -21 -8 -22 22 -1 21 -3 26 -6 13 -8 -32 -20 -39 -28 -16 -3 12 -11 21
-16 21 -12 0 -12 -17 1 -25 20 -13 9 -25 -16 -19 -19 5 -25 4 -20 -5 4 -6 17
-11 29 -11 22 0 22 -1 -3 -21 l-25 -21 28 6 c15 4 27 3 27 -1 1 -17 -84 -369
-90 -376 -4 -4 -13 69 -20 163 -7 94 -10 173 -7 177 4 3 2 14 -4 24 -9 17 -6
18 22 12 23 -4 30 -3 25 5 -4 7 -17 12 -29 12 -20 1 -21 2 -4 14 23 18 22 29
-2 16 -28 -14 -28 -14 -23 21 3 22 1 30 -7 25 -6 -4 -11 -17 -11 -29 0 -22 -1
-22 -20 3 -21 27 -26 21 -9 -12 10 -19 9 -20 -15 -14 -14 3 -26 3 -26 -2 0 -5
-11 -14 -25 -20 -23 -11 -25 -10 -26 16 0 27 0 27 -10 3 l-9 -23 -20 23 c-11
13 -19 19 -20 12 0 -6 4 -15 10 -18 18 -11 11 -27 -10 -22 -27 7 -25 -8 3 -20
l22 -10 -22 -7 c-13 -4 -23 -12 -23 -17 0 -12 17 -12 25 1 12 19 25 10 26 -17
0 -25 1 -26 9 -8 7 18 9 18 20 -10 34 -86 109 -299 106 -302 -2 -3 -41 49
-214 289 -13 17 -12 18 14 12 19 -5 25 -4 20 5 -4 6 -17 11 -29 11 -21 1 -22
1 -3 15 11 8 16 18 13 22 -4 4 -13 1 -19 -5 -20 -20 -28 -13 -21 20 4 22 3 29
-5 24 -7 -4 -12 -17 -12 -29 0 -22 -1 -22 -20 3 -21 27 -26 21 -9 -12 10 -19
9 -20 -15 -14 -15 4 -26 2 -26 -4 0 -5 9 -10 20 -10 25 0 25 -9 3 -26 -15 -11
-16 -13 -3 -14 9 0 22 6 29 13 11 10 13 7 9 -15 -3 -16 -1 -28 3 -28 5 0 9 8
9 17 0 15 2 15 14 3 22 -22 236 -320 230 -320 -2 0 -23 17 -47 38 -23 21 -94
81 -158 133 -63 52 -114 100 -112 106 2 6 -6 13 -19 16 -22 6 -22 7 -3 22 19
16 19 16 -7 10 -25 -5 -28 -3 -29 22 l0 28 -10 -25 c-10 -23 -11 -24 -23 -7
-18 23 -29 22 -16 -2 14 -27 13 -29 -17 -25 l-28 4 28 -13 27 -13 -29 -22
c-38 -28 -41 -28 -42 6 l-1 27 -13 -29 c-12 -28 -13 -29 -19 -8 -4 12 -12 22
-17 22 -12 0 -12 -17 1 -25 19 -12 10 -22 -16 -17 -19 3 -25 1 -20 -7 4 -6 17
-11 29 -11 22 0 22 -1 -3 -20 -27 -21 -21 -27 11 -10 17 9 19 7 20 -17 l0 -28
10 24 c9 23 10 24 25 5 13 -16 15 -17 10 -2 -4 14 5 12 47 -11 29 -16 140 -79
247 -139 l195 -109 60 -114 c165 -313 421 -588 915 -981 212 -168 333 -254
708 -502 381 -252 573 -391 603 -439 19 -30 20 -43 16 -187 -6 -190 -27 -308
-110 -640 -35 -140 -98 -427 -138 -637 -41 -211 -77 -383 -81 -383 -5 0 -8 5
-8 11 0 6 -18 49 -39 95 -144 308 -357 457 -751 529 -128 23 -465 30 -840 16
-570 -20 -788 14 -1095 172 -284 147 -483 296 -716 534 -195 199 -243 274
-225 348 4 16 74 93 169 188 152 151 277 300 298 354 10 27 16 28 194 48 172
19 225 18 225 -4 0 -13 2 -13 9 -2 5 7 14 11 20 7 7 -5 9 -1 5 9 -5 12 -2 14
12 8 16 -6 17 -5 6 9 -10 13 -10 17 0 22 7 3 3 4 -10 2 -19 -4 -22 -1 -17 17
6 21 5 21 -13 -2 -12 -15 -24 -21 -32 -16 -9 6 -12 4 -8 -6 4 -11 -8 -14 -56
-16 -33 -2 -95 -5 -136 -8 l-75 -5 50 19 c207 78 247 91 241 76 -3 -8 -1 -15
4 -15 6 0 10 5 10 11 0 5 5 7 10 4 5 -3 10 -2 10 4 0 5 8 12 18 14 15 4 15 5
-2 6 -16 1 -17 3 -5 18 12 15 12 16 -3 10 -13 -4 -18 -1 -19 11 0 11 -2 12 -6
4 -4 -10 -8 -10 -21 0 -13 11 -15 10 -9 -4 4 -13 1 -18 -11 -19 -14 0 -14 -2
3 -9 24 -9 34 -5 -140 -64 -71 -24 -131 -43 -133 -41 -2 2 43 35 100 74 89 62
104 69 110 54 6 -17 7 -17 7 1 1 16 3 17 18 5 15 -12 16 -12 10 5 -6 14 -4 17
8 12 8 -3 15 -1 15 4 0 6 -5 10 -11 10 -5 0 -7 5 -3 12 5 8 2 9 -10 5 -14 -6
-16 -3 -11 16 6 22 6 22 -13 -2 -11 -13 -24 -21 -31 -17 -6 4 -11 2 -11 -3 0
-6 5 -11 11 -11 18 0 -12 -24 -116 -91 -137 -89 -133 -87 -103 -48 15 18 49
62 75 96 27 34 53 60 60 58 6 -2 13 5 16 17 4 15 11 18 29 14 l23 -7 -23 17
c-12 9 -23 26 -23 38 -1 17 -2 18 -6 3 -4 -15 -7 -16 -21 -5 -13 11 -15 10 -9
-5 5 -14 2 -16 -18 -13 -36 7 -45 14 -46 39 -1 18 -2 19 -6 4 -4 -14 -8 -16
-19 -6 -12 10 -13 9 -8 -5 5 -13 2 -15 -17 -8 -13 5 -27 20 -30 33 -6 19 -7
20 -8 5 -1 -20 -1 -20 -17 0 -15 18 -15 18 -9 -3 5 -19 3 -22 -12 -17 -13 4
-12 1 6 -13 l23 -20 -23 -109 -23 -109 -13 55 c-7 30 -15 79 -18 108 -3 44 -1
52 13 52 14 0 14 2 3 9 -7 5 -11 14 -7 20 5 7 1 8 -10 4 -13 -5 -16 -3 -11 10
3 9 2 17 -3 17 -6 0 -10 -5 -10 -11 0 -8 -5 -7 -15 1 -13 11 -14 10 -9 -3 3
-10 -1 -17 -13 -20 -17 -4 -17 -5 1 -6 16 -1 17 -3 5 -18 -12 -15 -12 -16 4
-10 12 4 17 1 17 -11 0 -12 3 -13 8 -5 5 8 13 -24 20 -75 7 -48 16 -105 19
-127 5 -38 2 -36 -66 62 -39 56 -71 104 -71 107 0 2 8 7 17 9 16 4 16 5 -1 6
-15 1 -16 4 -6 16 11 13 10 14 -4 9 -11 -4 -16 -1 -17 12 0 18 -1 18 -8 -1 -8
-19 -8 -19 -20 0 -9 15 -11 15 -7 3 3 -10 -2 -18 -12 -21 -15 -4 -14 -5 2 -6
16 -1 17 -3 5 -18 -12 -15 -12 -16 3 -10 13 4 18 1 19 -11 0 -11 2 -13 6 -4 3
8 39 -38 85 -109 79 -122 80 -123 65 -154 -27 -57 -138 -184 -266 -305 -121
-115 -197 -178 -204 -169 -8 10 -98 422 -111 509 -8 52 -17 145 -21 205 l-6
111 117 53 c83 38 119 50 124 41 5 -8 9 -7 14 5 4 11 13 15 28 10 l23 -6 -22
17 c-13 9 -24 26 -24 38 -1 17 -2 18 -6 3 -4 -15 -7 -16 -21 -5 -14 11 -15 10
-9 -6 5 -13 3 -17 -7 -13 -9 4 -13 1 -10 -7 3 -8 -24 -25 -76 -48 -44 -20 -80
-34 -80 -31 0 11 95 108 102 105 5 -1 8 2 8 8 0 5 7 7 15 4 11 -5 13 -2 9 10
-5 12 -2 15 12 10 14 -4 16 -3 5 4 -8 6 -10 15 -6 23 6 9 3 11 -9 6 -14 -5
-17 -3 -12 8 3 8 1 15 -3 15 -5 0 -12 -6 -14 -12 -4 -10 -6 -10 -6 0 -1 6 -5
12 -11 12 -5 0 -7 -8 -3 -17 5 -15 3 -16 -8 -5 -7 6 -17 12 -23 12 -5 0 0 -8
11 -17 24 -23 17 -38 -55 -119 l-53 -59 20 52 c44 111 51 124 62 117 8 -5 9
-3 5 5 -5 7 0 21 11 33 18 20 18 21 -4 14 -19 -6 -22 -4 -16 11 6 17 5 17 -14
1 -11 -10 -25 -18 -32 -18 -8 0 -7 -5 4 -16 9 -9 15 -19 13 -23 -2 -3 -17 -41
-33 -83 -17 -43 -33 -78 -36 -78 -6 0 -29 123 -29 154 0 8 8 17 18 19 15 4 15
5 -2 6 -16 1 -17 3 -5 18 12 15 12 16 -3 10 -13 -4 -18 -1 -18 11 0 15 -2 15
-10 2 -9 -13 -11 -13 -21 0 -9 13 -10 12 -5 -2 4 -13 0 -18 -12 -18 -15 0 -15
-2 -2 -10 13 -9 13 -11 0 -21 -12 -8 -11 -9 6 -4 18 5 23 -1 32 -37 16 -60 30
-138 26 -138 -2 0 -27 34 -55 77 -30 44 -45 74 -35 70 9 -4 16 -3 16 2 0 5 -9
11 -20 14 -12 3 -20 14 -21 29 -1 18 -2 19 -6 5 -5 -18 -5 -18 -19 0 -14 17
-15 17 -9 -4 5 -19 3 -22 -12 -17 -13 5 -12 2 5 -10 12 -10 22 -24 22 -32 0
-8 4 -13 9 -10 7 5 38 -33 75 -93 11 -19 -37 11 -88 54 -33 27 -34 30 -19 47
9 10 11 18 5 18 -6 0 -14 -4 -17 -10 -11 -17 -25 -11 -18 8 6 14 4 15 -8 5
-12 -10 -18 -10 -28 0 -10 9 -11 8 -6 -5 5 -12 2 -18 -6 -18 -11 0 -11 -3 1
-10 13 -9 13 -11 0 -21 -12 -8 -10 -9 7 -4 19 5 22 3 16 -12 -6 -16 -5 -16 10
-4 11 9 17 10 17 2 0 -6 4 -10 9 -8 4 1 44 -23 88 -53 l80 -54 6 -136 c8 -164
26 -301 71 -525 19 -93 34 -170 33 -171 -1 -1 -83 42 -182 96 -300 161 -665
411 -665 455 0 18 240 266 251 259 5 -3 9 0 9 6 0 6 5 8 10 5 6 -3 10 -1 10 4
0 6 8 11 18 12 14 0 14 2 -3 9 -11 5 -14 9 -7 9 6 1 12 5 12 11 0 5 -6 7 -14
4 -8 -3 -16 2 -19 13 -4 16 -5 16 -6 -1 -1 -20 -1 -20 -17 0 -13 15 -15 16
-10 2 3 -10 -2 -18 -12 -21 -15 -4 -14 -5 2 -6 16 -1 17 -3 5 -18 -12 -15 -12
-16 6 -9 l20 7 -20 -19 c-11 -10 -69 -66 -129 -123 -123 -118 -122 -118 -59
53 28 75 39 95 51 91 10 -4 13 -2 8 5 -4 8 0 12 11 12 15 0 16 2 3 10 -13 9
-13 11 0 21 12 8 10 9 -9 4 -19 -6 -23 -4 -18 9 4 9 2 16 -3 16 -6 0 -10 -5
-10 -11 0 -8 -5 -7 -15 1 -13 11 -14 10 -9 -3 3 -10 -1 -17 -13 -20 -17 -4
-17 -5 1 -6 16 -1 17 -3 5 -18 -12 -15 -12 -16 4 -10 9 3 17 3 17 -1 0 -4 -20
-54 -45 -112 l-45 -105 -2 45 c-7 132 -5 152 14 147 10 -3 18 -1 18 4 0 5 -8
9 -17 10 -11 0 -13 3 -5 6 6 2 12 9 12 14 0 4 -7 6 -15 3 -10 -4 -15 0 -15 12
0 16 -2 17 -10 4 -9 -13 -11 -13 -21 0 -8 12 -9 10 -4 -7 5 -19 3 -22 -12 -16
-15 6 -16 4 -5 -9 10 -13 10 -17 0 -22 -7 -3 -3 -4 10 -2 13 3 22 0 21 -7 -1
-7 1 -19 5 -28 4 -8 6 -55 4 -104 l-3 -88 -64 86 c-36 48 -67 84 -70 82 -2 -3
19 -40 47 -82 29 -41 51 -77 50 -79 -5 -4 -203 117 -206 127 -2 5 -11 9 -19 9
-13 0 -13 2 -2 17 12 15 12 16 -3 10 -13 -4 -18 -1 -18 11 0 15 -2 15 -10 2
-9 -13 -11 -13 -21 0 -9 13 -10 12 -5 -2 4 -13 0 -18 -12 -18 -15 0 -15 -2 -2
-10 13 -9 13 -11 0 -21 -12 -8 -10 -9 9 -4 19 6 23 4 18 -9 -8 -21 2 -21 18 1
12 16 23 10 124 -56 61 -41 111 -75 111 -76 0 -4 -192 42 -258 61 -29 8 -51
18 -48 22 2 4 -2 13 -10 20 -10 9 -14 9 -14 1 0 -8 -4 -8 -15 1 -13 11 -14 10
-9 -5 6 -14 4 -16 -7 -10 -11 7 -12 6 -2 -7 7 -8 9 -19 5 -23 -4 -5 -1 -5 6
-1 7 5 12 1 13 -11 0 -11 3 -13 6 -5 2 6 9 10 14 6 5 -3 9 -1 9 5 0 7 8 7 22
2 13 -5 95 -28 183 -51 159 -42 160 -43 215 -95 30 -29 127 -104 215 -167 225
-160 270 -191 440 -294 164 -99 181 -116 215 -219 33 -101 86 -169 248 -327
372 -360 792 -600 1197 -682 206 -43 295 -47 828 -45 547 3 612 -1 804 -57
192 -56 285 -119 373 -256 56 -85 174 -329 196 -403 27 -89 23 -245 -9 -435
-52 -304 -83 -726 -72 -995 10 -265 29 -459 90 -895 59 -423 67 -508 72 -761
6 -266 -3 -458 -42 -874 -27 -291 -50 -582 -60 -755 -13 -236 -40 -444 -125
-970 -48 -301 -72 -459 -86 -573 l-6 -57 363 2 364 3 12 115 c7 63 21 248 32
410 60 888 73 1668 33 2055 -45 430 -22 567 147 910 120 242 262 438 464 644
430 437 902 651 1617 732 52 6 412 15 800 19 736 8 834 14 1115 61 313 53 601
134 917 260 257 102 347 157 523 319 131 120 187 158 315 216 213 95 480 234
606 315 182 117 204 125 390 149 215 27 276 30 270 13 -3 -7 -1 -13 3 -13 5 0
12 7 15 16 4 10 13 13 28 9 22 -6 22 -6 4 9 -11 9 -14 16 -8 16 7 0 12 4 12
10 0 5 -6 7 -14 4 -8 -3 -16 2 -19 13 -4 17 -5 17 -6 -1 -1 -15 -4 -16 -16 -6
-13 11 -14 10 -10 -1 3 -9 -1 -15 -12 -16 -10 -1 -72 -9 -137 -18 -66 -8 -120
-14 -122 -12 -1 1 59 23 134 49 103 36 138 45 144 35 6 -9 8 -9 8 0 0 7 7 10
15 7 11 -5 13 -2 9 10 -5 12 -2 15 12 10 14 -4 16 -3 5 4 -7 5 -11 15 -7 21 5
7 1 8 -10 4 -13 -5 -16 -3 -11 10 3 9 2 17 -3 17 -6 0 -10 -5 -10 -11 0 -8 -5
-7 -15 1 -13 11 -14 10 -9 -4 4 -11 1 -16 -12 -17 -18 0 -17 -1 1 -9 16 -6 17
-9 5 -14 -44 -17 -275 -94 -277 -92 -6 6 209 136 217 131 4 -3 10 2 14 10 3 8
16 15 28 16 22 0 22 1 3 9 -11 5 -14 9 -7 9 6 1 12 5 12 11 0 5 -7 7 -15 4
-10 -4 -15 0 -16 12 0 18 -1 18 -8 -1 -8 -19 -8 -19 -20 0 -11 19 -12 19 -6
-2 5 -19 3 -22 -12 -17 -16 5 -16 4 1 -7 17 -10 7 -19 -95 -86 -160 -104 -159
-104 -91 -22 109 132 117 140 132 126 10 -10 12 -8 6 7 -5 14 -2 17 9 12 8 -3
15 -2 15 3 0 5 -9 11 -21 14 -16 4 -19 11 -14 26 4 12 2 21 -4 21 -6 0 -11 -8
-11 -17 0 -15 -2 -14 -16 3 -15 19 -15 19 -9 -2 5 -18 2 -21 -19 -17 -16 3
-23 10 -19 19 4 10 0 12 -13 7 -13 -5 -16 -3 -11 10 3 9 2 17 -3 17 -6 0 -10
-8 -10 -17 0 -15 -1 -15 -14 2 -8 11 -19 16 -30 12 -11 -4 -16 -1 -16 11 0 15
-2 15 -10 2 -9 -13 -11 -13 -20 0 -8 13 -10 13 -10 -2 0 -9 -3 -18 -7 -21 -5
-2 -2 -2 5 -1 16 4 15 -1 -4 -20 -12 -13 -13 -16 -2 -16 12 0 12 -15 -1 -95
-8 -52 -18 -95 -23 -95 -4 0 -8 8 -8 18 0 9 -6 54 -14 98 -13 80 -13 81 8 77
20 -4 20 -4 2 7 -15 10 -16 14 -5 22 10 7 8 8 -8 3 -17 -4 -21 -2 -19 12 2 10
1 13 -1 6 -5 -14 -32 -25 -44 -17 -5 3 -9 0 -9 -5 0 -6 8 -11 17 -11 15 0 14
-2 -3 -16 -18 -15 -18 -15 5 -8 17 4 21 3 16 -6 -4 -7 -3 -15 2 -19 6 -3 19
-57 30 -119 22 -128 21 -128 -61 2 -41 66 -53 92 -43 98 9 6 9 8 -2 8 -7 0
-11 6 -8 14 4 11 1 13 -10 9 -12 -5 -15 -2 -10 10 3 9 2 17 -2 17 -5 0 -12 -6
-14 -12 -4 -10 -6 -10 -6 0 -1 6 -6 12 -12 12 -5 0 -7 -5 -3 -11 3 -6 0 -15
-7 -20 -12 -7 -12 -9 0 -9 11 0 11 -3 0 -16 -12 -15 -11 -16 8 -10 20 6 30 -5
89 -96 37 -57 67 -109 68 -115 1 -14 -83 -60 -469 -254 -222 -112 -405 -199
-421 -199 -2 0 6 17 20 38 82 130 134 280 186 536 11 55 22 102 25 104 2 2 39
20 82 39 43 19 97 43 121 53 39 18 42 18 42 2 0 -13 2 -14 9 -3 5 7 14 11 20
7 7 -4 9 -1 5 8 -4 11 0 13 18 9 23 -5 23 -5 -2 14 -16 11 -25 25 -22 38 3 18
1 18 -16 -4 -13 -15 -24 -21 -32 -16 -10 6 -12 4 -7 -7 5 -14 -42 -41 -153
-86 -8 -3 8 20 35 51 28 31 56 57 63 57 6 0 12 5 12 11 0 5 5 7 10 4 6 -3 10
-2 10 4 0 5 6 11 13 14 6 2 4 3 -6 1 -18 -3 -18 -2 0 18 17 20 17 21 1 15 -13
-4 -18 -1 -19 11 0 11 -2 12 -6 4 -4 -10 -8 -10 -21 0 -13 11 -15 10 -9 -4 3
-10 2 -18 -3 -18 -6 0 -10 5 -10 10 0 6 -8 10 -17 11 -11 0 -13 3 -5 6 6 2 12
9 12 14 0 4 -6 6 -14 3 -8 -3 -16 2 -19 13 -4 16 -5 16 -6 -1 -1 -20 -1 -20
-17 0 -13 16 -15 16 -10 2 4 -12 0 -18 -11 -18 -14 0 -14 -2 3 -15 14 -11 15
-14 4 -15 -12 0 -12 -2 -2 -8 10 -7 6 -27 -19 -90 -18 -45 -34 -81 -35 -79 -2
2 -10 42 -17 90 -13 79 -13 87 2 88 11 0 12 2 3 6 -10 4 -10 8 0 20 11 14 10
15 -10 9 -18 -6 -21 -4 -15 11 6 15 4 16 -8 6 -12 -10 -18 -10 -29 0 -10 10
-11 9 -5 -2 4 -8 2 -17 -6 -23 -11 -8 -10 -9 4 -4 21 7 22 2 0 -20 -16 -16
-16 -16 5 -10 17 6 21 4 16 -8 -3 -9 -2 -16 4 -16 5 0 12 -19 15 -42 4 -24 9
-59 13 -78 6 -32 2 -30 -45 37 -28 39 -51 74 -51 77 0 3 8 3 18 0 12 -4 10 0
-5 12 -13 9 -24 26 -24 38 -1 17 -2 18 -6 3 -4 -15 -7 -16 -21 -5 -13 11 -15
11 -9 -4 4 -12 2 -15 -9 -11 -7 3 -14 1 -14 -5 0 -5 10 -12 21 -15 15 -4 20
-11 15 -22 -4 -11 -2 -15 6 -13 10 4 88 -92 88 -107 0 -10 -109 71 -110 81 0
7 -9 14 -20 17 -12 3 -20 14 -21 29 -1 18 -2 19 -6 5 -5 -18 -5 -18 -19 0 -14
17 -15 17 -9 -4 5 -19 3 -22 -12 -17 -14 4 -13 1 5 -12 12 -9 23 -26 23 -38 1
-16 2 -17 6 -4 4 16 7 16 37 -2 30 -16 128 -83 149 -100 5 -4 -8 -68 -28 -141
-61 -225 -120 -373 -191 -481 l-46 -69 -31 20 c-212 134 -398 337 -463 508
l-17 44 123 124 c68 68 127 122 131 119 4 -2 10 2 12 8 4 10 8 9 17 -2 10 -13
11 -13 6 3 -4 11 0 17 12 18 11 0 12 2 4 6 -10 4 -10 8 0 20 11 14 10 15 -10
9 -18 -6 -21 -4 -15 11 6 15 4 16 -8 6 -12 -10 -18 -10 -29 0 -10 10 -11 9 -5
-2 4 -8 2 -17 -6 -23 -11 -8 -10 -9 4 -4 9 3 17 3 17 0 0 -3 -48 -55 -107
-115 -60 -61 -109 -115 -111 -120 -2 -5 -7 -9 -12 -9 -5 0 6 44 25 98 44 130
45 133 58 125 6 -4 7 -1 3 6 -5 7 0 21 11 33 16 20 17 21 1 15 -13 -4 -18 -1
-18 11 0 15 -2 15 -10 2 -9 -13 -11 -13 -21 0 -9 13 -10 12 -5 -2 4 -12 0 -18
-12 -19 -14 0 -14 -2 3 -8 19 -8 19 -8 0 -20 -18 -11 -18 -12 -2 -7 13 4 17 2
14 -6 -3 -7 -20 -57 -37 -111 -18 -54 -34 -96 -36 -94 -2 2 -6 45 -9 96 -5 81
-3 92 10 87 8 -3 15 -2 15 3 0 5 -9 11 -20 14 -12 3 -20 14 -21 29 -1 18 -2
19 -6 5 -5 -18 -5 -18 -20 0 -13 16 -14 16 -9 1 4 -12 0 -18 -10 -18 -13 0
-11 -4 5 -17 18 -15 24 -37 35 -133 8 -63 13 -116 11 -118 -1 -1 -32 39 -70
89 -53 71 -65 93 -54 100 12 7 12 9 0 9 -8 0 -11 6 -7 16 4 12 2 15 -9 10 -10
-3 -15 1 -16 12 0 11 -2 12 -6 4 -4 -10 -8 -10 -21 0 -13 11 -15 10 -9 -4 4
-11 0 -18 -11 -21 -15 -4 -14 -5 2 -6 15 -1 16 -4 6 -16 -11 -13 -10 -14 4 -9
11 4 16 1 16 -12 0 -12 3 -15 8 -7 4 7 32 -21 74 -78 36 -49 64 -89 61 -89
-10 0 -228 134 -231 142 -2 4 -11 8 -19 8 -13 0 -13 3 -3 15 11 13 10 14 -5 8
-14 -5 -17 -3 -12 10 3 9 2 17 -3 17 -6 0 -10 -8 -10 -17 0 -15 -2 -14 -16 3
-13 15 -15 16 -10 2 3 -10 -2 -18 -12 -21 -15 -4 -14 -5 2 -6 16 -1 17 -3 5
-18 -12 -15 -12 -16 4 -10 12 4 17 1 18 -11 0 -9 3 -12 5 -6 3 7 15 9 27 6 20
-5 217 -120 217 -126 0 -1 -67 16 -149 38 -107 29 -147 44 -144 53 4 9 0 11
-11 7 -12 -5 -15 -2 -10 10 3 9 1 16 -5 16 -6 0 -11 -5 -11 -11 0 -8 -6 -7
-17 2 -15 12 -16 12 -10 -3 4 -11 0 -18 -11 -21 -16 -4 -15 -5 1 -6 20 -1 23
-17 5 -25 -7 -3 -4 -4 8 -1 12 3 27 -1 34 -10 9 -11 15 -13 20 -5 5 8 59 -2
183 -35 l175 -47 31 -71 c67 -151 203 -322 346 -432 42 -33 87 -67 98 -76 21
-16 21 -17 -22 -68 -88 -105 -278 -239 -457 -322 -618 -286 -1136 -373 -2119
-355 -747 13 -1139 -28 -1555 -165 -577 -190 -1088 -555 -1392 -994 -63 -91
-136 -220 -178 -314 l-28 -65 -5 45 c-25 215 -68 483 -118 739 -120 604 -128
677 -111 1048 30 650 81 1173 178 1812 79 520 114 902 98 1101 -9 115 3 136
109 215 244 181 510 340 1134 680 815 444 1040 584 1368 848 124 100 340 314
429 426 l68 84 281 113 c155 62 284 113 288 113 4 0 5 -10 1 -22 -3 -14 -2
-19 6 -14 7 4 12 15 13 24 0 12 3 11 9 -5 13 -31 24 -29 16 3 -6 22 -5 24 13
15 33 -18 48 -11 16 7 -28 16 -29 17 -7 20 12 2 22 8 22 13 0 5 -11 7 -25 3
-24 -6 -25 -5 -15 20 6 17 6 26 0 26 -6 0 -10 -5 -10 -10 0 -6 -8 -5 -20 2
-18 11 -18 14 -5 24 23 17 18 25 -11 14 -20 -8 -25 -7 -21 2 3 7 8 21 12 31
11 25 -10 21 -22 -5 l-10 -23 -7 23 c-4 12 -11 22 -16 22 -6 0 -6 -10 0 -25 5
-14 8 -25 5 -25 -2 0 -16 11 -31 25 -20 18 -23 25 -11 25 9 0 19 5 23 11 5 9
-1 10 -21 5 -26 -7 -27 -6 -21 21 6 25 5 26 -7 11 -17 -22 -27 -23 -27 -4 0 8
-5 18 -11 22 -9 5 -10 -1 -5 -20 8 -31 8 -30 -35 -11 -32 14 -33 15 -11 21 12
3 22 10 22 15 0 5 -11 4 -25 -1 -23 -9 -24 -8 -19 23 5 32 5 32 -9 8 l-15 -24
-6 21 c-4 12 -12 22 -17 22 -12 0 -11 -7 1 -31 13 -23 12 -23 -36 -3 -37 16
-38 17 -16 25 33 12 27 22 -9 14 -29 -6 -30 -6 -20 13 13 25 14 32 2 32 -5 0
-12 -10 -15 -22 -6 -22 -7 -22 -21 7 l-15 30 4 -27 c3 -25 1 -27 -23 -22 l-26
6 25 -21 c20 -16 21 -21 8 -21 -9 0 -20 -5 -24 -11 -5 -9 1 -10 20 -5 17 4 27
3 24 -3 -8 -23 -172 -370 -174 -368 -6 7 41 343 49 348 5 4 6 16 2 29 -6 20
-5 21 15 10 11 -6 26 -9 33 -7 7 2 -1 11 -18 20 -19 10 -24 16 -13 17 9 0 20
5 24 11 5 9 -1 10 -20 5 -29 -7 -31 -4 -16 25 7 12 7 19 1 19 -5 0 -13 -10
-17 -22 -7 -23 -7 -22 -16 5 -5 15 -14 27 -19 27 -12 0 -11 -7 1 -31 12 -22 7
-24 -21 -9 -13 8 -19 7 -19 0 0 -6 10 -15 23 -19 21 -9 21 -9 2 -17 -11 -4
-23 -12 -26 -17 -4 -5 -16 -4 -30 4 l-24 14 23 3 c12 2 22 8 22 13 0 5 -11 7
-25 3 -24 -6 -25 -5 -15 20 5 15 6 26 0 26 -5 0 -12 -10 -16 -22 -6 -21 -7
-21 -21 6 -18 34 -27 29 -13 -8 9 -24 8 -26 -9 -16 -32 17 -38 11 -11 -10 l25
-20 -22 0 c-13 0 -23 -5 -23 -11 0 -7 9 -9 24 -5 21 5 23 3 19 -22 -3 -20 -2
-23 6 -13 8 12 11 10 15 -10 10 -44 47 -321 44 -324 -2 -2 -27 49 -55 113 -28
64 -63 143 -77 175 l-26 58 22 -6 c22 -6 22 -6 -2 14 -20 16 -21 21 -8 21 9 0
20 5 23 10 4 7 -2 9 -19 4 -29 -7 -31 -2 -16 27 7 12 7 19 1 19 -5 0 -13 -10
-17 -22 -6 -21 -7 -21 -21 5 -17 34 -25 35 -17 1 6 -24 5 -26 -17 -19 l-24 6
25 -20 25 -21 -22 0 c-13 0 -23 -5 -23 -11 0 -7 10 -9 26 -5 23 6 24 5 14 -15
-14 -26 -3 -41 12 -15 9 15 22 -7 80 -135 97 -214 102 -227 85 -209 -7 8 -45
56 -83 105 -38 50 -93 118 -122 153 -29 34 -48 62 -42 62 21 0 9 19 -17 28
-27 9 -28 9 -5 16 12 4 22 11 22 16 0 6 -10 6 -25 0 -23 -9 -24 -8 -15 16 12
31 12 34 1 34 -5 0 -12 -10 -15 -22 l-7 -23 -11 23 c-6 12 -15 22 -20 22 -5 0
-4 -9 2 -19 15 -28 13 -33 -9 -21 -24 12 -31 13 -31 2 0 -5 9 -13 20 -18 19
-8 18 -10 -15 -28 -40 -22 -52 -17 -35 13 6 13 7 21 1 21 -5 0 -13 -10 -17
-22 -6 -21 -7 -21 -21 5 -17 34 -25 35 -17 1 6 -23 4 -25 -15 -19 -11 3 -21 2
-21 -3 0 -5 10 -13 23 -16 21 -6 21 -7 -8 -21 l-30 -15 32 5 c31 4 32 3 23
-20 -5 -14 -6 -25 -1 -25 5 0 12 7 15 17 6 14 8 14 22 -3 14 -18 15 -18 10 -1
-8 24 0 18 252 -203 l200 -175 -32 -45 c-55 -79 -357 -373 -481 -470 -259
-200 -564 -387 -1060 -650 -661 -349 -893 -478 -1075 -594 -36 -23 -72 -46
-80 -50 -8 -5 104 109 250 252 146 143 326 326 400 406 74 80 139 146 143 146
5 0 6 -10 2 -22 -5 -21 -5 -21 8 -6 11 14 16 15 27 5 10 -10 12 -8 6 7 -5 16
-3 17 20 12 17 -5 23 -3 19 4 -3 5 -14 10 -23 10 -16 1 -16 2 1 14 23 18 22
29 -3 16 -11 -6 -20 -7 -20 -3 0 4 50 67 111 138 176 207 265 328 410 558 23
37 37 44 293 148 149 60 271 109 272 109 1 0 0 -10 -3 -22 -4 -21 -3 -21 9 -6
13 15 15 15 26 0 11 -15 12 -14 7 6 -7 25 -3 27 26 12 10 -6 19 -7 19 -2 0 5
-10 14 -22 20 -18 8 -19 11 -6 11 9 1 20 6 24 12 5 8 -1 10 -19 7 -24 -5 -26
-3 -21 19 5 18 3 22 -9 17 -27 -10 -43 7 -21 24 18 13 17 14 -8 8 -26 -6 -27
-5 -18 19 6 15 6 25 0 25 -5 0 -12 -10 -16 -22 -6 -21 -7 -20 -20 8 l-14 29 5
-28 6 -29 -25 19 c-23 17 -24 19 -8 32 15 12 14 13 -11 7 -26 -6 -27 -5 -18
13 14 25 14 31 1 31 -5 0 -10 -7 -10 -15 0 -8 -4 -15 -10 -15 -5 0 -10 6 -10
14 0 8 -5 18 -11 22 -8 5 -10 -1 -5 -19 6 -25 5 -25 -24 -14 -26 10 -28 13
-15 23 21 16 19 23 -6 17 -18 -5 -19 -2 -13 22 5 20 4 26 -5 21 -6 -4 -11 -14
-11 -22 0 -8 -4 -14 -10 -14 -5 0 -10 6 -10 14 0 8 -5 18 -10 21 -7 4 -9 -2
-5 -18 6 -24 6 -24 -29 -13 -37 11 -48 26 -21 26 8 0 15 4 15 9 0 5 -9 7 -21
4 -18 -5 -19 -2 -14 23 l6 29 -15 -25 -16 -25 -6 23 c-3 12 -10 22 -15 22 -12
0 -11 -7 1 -31 11 -20 -3 -28 -15 -9 -8 12 -25 13 -25 2 0 -5 10 -14 23 -20
17 -8 18 -11 5 -11 -9 -1 -20 -6 -24 -12 -5 -9 1 -10 19 -5 l27 6 -34 -72
c-102 -221 -129 -278 -132 -275 -8 8 37 322 46 325 6 2 6 10 -1 24 -10 18 -9
19 11 8 12 -6 26 -9 33 -6 7 2 2 8 -10 11 -26 8 -31 25 -8 25 8 0 15 4 15 9 0
5 -10 7 -21 4 -20 -5 -21 -3 -15 21 4 18 3 25 -4 21 -5 -3 -10 -13 -10 -21 0
-8 -4 -14 -10 -14 -5 0 -10 6 -10 14 0 8 -5 18 -10 21 -7 4 -8 -3 -4 -20 6
-25 5 -26 -15 -16 -11 7 -21 8 -21 3 0 -5 10 -14 23 -20 17 -8 18 -11 5 -11
-9 -1 -20 -6 -23 -11 -4 -7 3 -8 20 -4 25 6 26 5 16 -15 -7 -12 -9 -26 -6 -31
6 -10 -26 -322 -32 -316 -7 6 -53 349 -49 354 3 3 12 -1 21 -8 11 -9 15 -9 15
-1 0 6 -7 14 -16 18 -15 6 -15 8 2 21 18 13 17 14 -8 8 -26 -6 -27 -5 -18 19
11 29 3 33 -16 8 -12 -17 -13 -17 -14 -1 0 9 -5 20 -11 24 -9 5 -10 -1 -5 -20
6 -25 5 -26 -14 -16 -15 8 -20 8 -20 -1 0 -6 10 -13 21 -16 21 -6 21 -6 -2
-20 l-24 -14 23 5 c21 4 23 2 17 -21 -5 -22 -4 -24 8 -15 12 10 17 -13 35
-141 12 -83 22 -159 22 -167 -1 -8 -13 14 -29 50 -16 36 -49 111 -74 168 -43
96 -45 103 -24 97 20 -6 21 -5 5 8 -22 17 -23 27 -3 27 8 0 15 4 15 10 0 6 -9
6 -25 0 -28 -11 -30 -8 -15 21 6 11 7 19 1 19 -5 0 -12 -8 -16 -17 -6 -16 -8
-15 -21 7 l-15 25 6 -28 c5 -26 4 -27 -16 -17 -11 7 -23 9 -26 7 -2 -3 5 -11
18 -17 l22 -12 -24 -15 -24 -14 28 6 c26 5 27 4 22 -22 -6 -25 -5 -26 8 -11
15 19 25 -2 142 -267 33 -73 37 -77 -106 103 -68 85 -113 150 -107 153 6 4 1
10 -11 14 -21 6 -22 7 -4 22 17 14 17 14 -5 9 -21 -4 -23 -2 -18 20 4 14 2 24
-4 24 -5 0 -10 -7 -10 -15 0 -8 -4 -15 -10 -15 -5 0 -10 6 -10 14 0 8 -5 18
-10 21 -7 4 -8 -3 -4 -20 6 -25 5 -26 -15 -16 -25 14 -30 -3 -4 -17 14 -8 12
-12 -15 -26 -41 -21 -43 -21 -37 12 l6 27 -14 -24 -15 -24 -6 21 c-4 12 -12
22 -17 22 -6 0 -5 -8 1 -20 10 -19 9 -20 -17 -15 l-28 7 25 -21 25 -21 -22 0
c-13 0 -23 -5 -23 -10 0 -6 10 -8 24 -4 21 5 23 3 19 -23 l-4 -28 14 24 c13
21 15 22 21 5 5 -12 10 -14 14 -7 7 10 400 -322 401 -340 2 -15 -109 -184
-193 -297 -48 -63 -137 -174 -198 -247 -108 -128 -147 -160 -133 -110 5 20 5
20 -8 5 -12 -15 -14 -15 -25 0 -11 15 -12 14 -8 -5 5 -27 2 -28 -23 -6 -19 15
-19 17 -3 30 15 13 15 13 -7 7 -21 -5 -23 -3 -18 15 3 11 1 21 -4 21 -5 0 -9
-7 -9 -15 0 -8 -4 -15 -10 -15 -5 0 -10 6 -10 14 0 8 -5 18 -10 21 -7 4 -9 -2
-4 -19 6 -25 6 -26 -27 -14 -24 9 -29 13 -16 16 9 2 17 8 17 13 0 6 -9 7 -20
4 -18 -6 -20 -3 -15 22 5 27 5 27 -7 5 l-12 -23 -13 23 -14 23 5 -27 c6 -26 5
-26 -26 -17 -18 5 -35 9 -37 9 -3 0 4 7 15 16 18 15 18 15 -4 9 -21 -6 -22 -4
-16 21 5 19 4 25 -5 20 -6 -4 -11 -15 -11 -24 0 -13 -5 -12 -20 8 -21 27 -26
21 -9 -11 10 -19 9 -19 -10 -9 -12 6 -21 7 -21 1 0 -5 7 -12 17 -15 14 -6 14
-8 -3 -22 -18 -14 -18 -15 4 -9 29 8 32 20 -48 -180 l-60 -150 6 150 c4 83 11
153 16 156 5 3 6 13 2 23 -5 14 -2 16 22 11 27 -5 28 -5 7 6 -21 11 -22 13 -5
26 15 13 15 13 -7 7 -21 -5 -23 -3 -18 15 3 11 1 21 -4 21 -5 0 -9 -8 -9 -17
0 -15 -4 -13 -19 7 -14 17 -17 29 -10 41 49 92 298 744 375 983 l39 120 132
85 c259 168 318 206 325 209 3 2 4 -7 1 -20 -4 -21 -3 -22 10 -6 10 13 16 15
25 6 7 -7 12 -8 12 -2 0 5 -6 16 -12 23 -11 10 -7 11 17 6 27 -6 28 -5 13 8
-14 11 -15 16 -5 26 10 11 7 12 -12 6 -21 -6 -23 -5 -18 14 5 20 -8 31 -15 11
-2 -6 -8 -6 -18 0 -13 9 -13 11 0 21 12 8 9 9 -11 5 -24 -5 -26 -3 -22 22 3
27 3 27 -7 3 -10 -23 -11 -24 -26 -5 -15 18 -15 18 -9 -3 5 -20 4 -21 -20 -10
-23 11 -24 13 -7 26 15 12 14 13 -9 7 -24 -5 -26 -3 -22 22 3 27 3 27 -7 3
-10 -23 -11 -24 -26 -5 -14 18 -15 18 -8 -5 5 -20 3 -23 -11 -18 -9 4 -24 7
-33 7 -13 0 -13 3 4 16 18 15 18 15 -3 9 -19 -5 -23 -2 -24 17 -1 17 -3 18 -6
6 -2 -10 -7 -18 -10 -18 -3 0 -12 8 -20 18 -13 16 -14 15 -8 -5 6 -20 3 -23
-24 -23 -17 0 -31 5 -31 10 0 6 5 10 10 10 6 0 10 5 10 10 0 7 -7 7 -20 0 -19
-10 -20 -9 -14 14 8 32 -3 35 -15 4z m82 -66 c5 -2 0 -10 -10 -18 -17 -14 -17
-15 5 -9 20 6 19 1 -18 -67 -22 -40 -59 -108 -82 -150 -23 -43 -43 -77 -44
-75 -1 1 15 70 37 152 21 83 39 151 39 153 0 2 5 0 12 -4 8 -5 9 -2 5 9 -5 13
-1 16 21 15 15 -1 31 -3 35 -6z m98 -22 c10 0 19 -4 19 -10 0 -5 -7 -10 -15
-10 -9 0 -15 -6 -13 -14 2 -8 -41 -69 -96 -135 -103 -127 -134 -158 -99 -100
11 19 48 85 83 147 51 92 65 111 76 101 17 -14 19 2 2 20 -11 11 -10 13 5 7
10 -3 27 -6 38 -6z m92 -33 l25 -13 -27 -25 c-25 -24 -204 -176 -246 -208 -19
-15 -19 -15 -4 4 79 99 184 220 191 218 4 -2 8 5 8 14 0 13 3 14 12 5 17 -17
33 -15 18 3 -15 18 -10 19 23 2z m92 -38 c11 -17 -1 -21 -15 -4 -8 9 -8 15 -2
15 6 0 14 -5 17 -11z m-36 -22 c55 14 10 -23 -143 -120 -94 -59 -151 -90 -127
-70 25 21 90 77 145 124 56 47 102 80 104 74 2 -7 11 -11 21 -8z m-846 -29
c-4 -22 -4 -23 11 -4 10 12 16 15 16 7 0 -7 6 -11 13 -8 11 3 217 -163 262
-213 18 -20 -202 104 -307 173 -44 29 -46 33 -31 49 23 25 42 23 36 -4z m2530
-230 c-3 -65 -35 -349 -39 -345 -4 4 -54 341 -54 364 0 10 6 12 20 8 11 -3 28
-2 37 4 32 18 39 12 36 -31z m269 -21 c-28 -13 -29 -27 -1 -20 15 4 -20 -44
-106 -148 -70 -85 -130 -156 -132 -159 -2 -2 14 35 36 83 23 48 59 126 82 174
31 68 42 84 50 73 8 -12 10 -9 7 11 l-4 25 45 -15 c41 -13 43 -15 23 -24z
m-3283 5 c3 0 15 0 26 -1 17 -2 16 -4 -7 -17 -35 -18 -36 -28 -3 -20 14 4 25
5 25 3 0 -7 -202 -391 -210 -400 -4 -5 15 86 43 201 38 157 54 209 64 205 16
-6 17 2 3 27 -9 17 -7 18 21 10 17 -5 34 -9 38 -8z m2576 -19 c-6 -27 -6 -27
9 -9 9 11 16 14 16 8 0 -7 8 -16 17 -19 9 -4 29 -21 44 -38 49 -55 229 -285
224 -285 -6 0 -321 274 -352 308 -27 27 -28 32 -8 32 8 0 15 4 15 9 0 5 8 12
18 14 9 3 18 5 20 6 1 0 0 -11 -3 -26z m-2871 -9 c-4 -14 -2 -29 3 -33 9 -6
47 -390 39 -398 -2 -2 -13 25 -25 60 -11 35 -45 130 -75 211 l-54 148 29 -6
c16 -3 29 -1 29 4 0 7 44 38 58 40 1 0 -1 -12 -4 -26z m-2224 10 c0 -4 -8 -13
-17 -20 -15 -11 -16 -13 -2 -14 8 0 21 6 28 13 10 10 12 7 10 -13 -1 -14 1
-32 4 -40 7 -16 38 -333 33 -337 -2 -2 -30 72 -64 164 -33 93 -63 175 -67 184
-5 13 -1 15 21 11 19 -3 25 -1 20 7 -4 6 -17 11 -29 12 l-22 0 23 11 c12 6 22
15 22 20 0 4 9 8 20 8 11 0 20 -3 20 -6z m283 -15 c30 0 31 -1 10 -11 -13 -6
-23 -15 -23 -20 0 -12 14 -10 28 4 24 24 11 -6 -71 -160 -46 -86 -86 -166 -90
-176 -4 -10 -9 -17 -11 -15 -3 2 15 83 39 179 28 115 47 174 54 172 9 -2 10 5
6 19 -6 18 -4 21 10 16 9 -4 31 -7 48 -8z m2417 -7 c3 -2 1 -6 -5 -9 -25 -9
-40 -25 -28 -29 7 -3 -47 -79 -135 -189 -81 -101 -148 -183 -149 -181 -2 2 93
182 202 384 11 20 14 21 25 7 18 -21 24 -11 10 15 -12 22 -11 22 32 15 23 -4
45 -10 48 -13z m3213 1 c24 -7 21 -19 -5 -28 -14 -4 -18 -8 -11 -11 10 -5
-210 -197 -290 -254 -12 -8 37 56 108 142 74 89 131 151 133 143 2 -8 8 -15
13 -15 6 0 7 9 4 22 -6 18 -4 20 11 13 11 -4 27 -10 37 -12z m-5503 -22 l25
-7 -24 -13 c-13 -8 -19 -16 -13 -20 8 -5 -193 -269 -240 -316 -10 -10 67 138
134 258 21 38 38 73 38 78 0 14 18 11 23 -3 2 -7 8 -10 12 -6 4 4 2 14 -5 23
-10 13 -9 15 6 14 11 -1 30 -4 44 -8z m2370 -1 c0 -5 11 -12 25 -16 14 -3 25
-8 25 -10 0 -7 -257 -236 -374 -333 -11 -9 40 59 114 151 85 107 137 165 146
161 9 -3 14 2 14 16 0 24 15 28 24 6 3 -8 11 -15 17 -15 7 0 5 9 -5 25 -14 22
-15 25 -1 25 8 0 15 -4 15 -10z m3253 -50 c7 0 -3 -9 -21 -20 -63 -38 -352
-200 -357 -200 -3 0 56 51 132 114 84 69 141 109 145 102 4 -7 9 -4 14 7 8 21
24 22 24 2 0 -8 5 -15 10 -15 6 0 8 11 4 28 l-7 27 22 -22 c12 -13 27 -23 34
-23z m-5520 18 c12 -7 23 -14 25 -14 5 -3 -77 -78 -213 -195 -65 -57 -115 -98
-111 -90 33 53 225 278 230 268 3 -7 7 -3 12 11 6 21 7 21 21 5 14 -17 14 -17
10 5 -6 26 -4 26 26 10z m2407 -28 c6 -11 7 -20 2 -20 -10 0 -32 21 -32 32 0
16 19 8 30 -12z m-2305 -11 c11 -17 -1 -21 -15 -4 -8 9 -8 15 -2 15 6 0 14 -5
17 -11z m2248 -21 c7 5 23 6 36 3 20 -5 -7 -27 -180 -142 -112 -74 -217 -144
-234 -154 -27 -17 -27 -16 5 12 19 17 107 94 195 171 128 112 161 136 163 120
2 -13 7 -16 15 -10z m-2307 -3 c-3 -8 -1 -15 4 -15 6 0 10 4 10 9 0 5 9 7 20
4 11 -3 20 -8 20 -12 0 -6 -353 -242 -373 -250 -6 -2 20 23 59 56 38 33 110
96 159 141 90 80 112 95 101 67z m5548 0 c3 -8 1 -15 -3 -15 -5 0 -11 7 -15
15 -3 8 -1 15 3 15 5 0 11 -7 15 -15z m-68 -11 c-4 -11 -1 -14 12 -10 16 5 52
-9 42 -16 -10 -7 -415 -166 -417 -164 -2 2 358 205 366 206 2 0 0 -7 -3 -16z
m-4285 -59 c5 4 9 16 9 28 l0 21 15 -21 c9 -12 21 -20 28 -17 7 2 89 -59 182
-137 198 -165 215 -181 155 -147 -25 14 -128 72 -230 128 -102 57 -188 109
-192 116 -4 6 -20 15 -35 19 -25 6 -26 8 -9 17 10 6 28 20 40 32 l21 21 3 -33
c2 -18 8 -30 13 -27z m-2137 14 c6 18 10 20 17 10 4 -8 15 -14 22 -14 12 0
230 -174 312 -248 19 -18 18 -18 -15 0 -189 103 -370 207 -370 213 0 4 -10 10
-22 14 -23 6 -23 6 7 32 l30 26 6 -29 c5 -28 5 -28 13 -4z m1082 16 c4 -8 10
-15 16 -15 5 0 6 5 3 10 -3 6 -1 10 5 10 21 0 4 -24 -21 -30 -20 -6 -24 -3
-24 17 0 26 13 31 21 8z m-77 -26 c-11 -7 -11 -9 -1 -9 7 0 10 -4 7 -10 -3 -5
-2 -10 4 -10 6 0 7 -7 4 -17 -4 -11 -3 -14 5 -9 7 4 12 3 12 -3 0 -6 6 -9 13
-6 10 3 145 -150 156 -179 2 -6 -27 16 -65 49 -125 108 -163 145 -149 145 8 0
15 5 15 11 0 6 -7 9 -14 6 -11 -4 -13 -1 -9 11 6 15 5 15 -10 3 -10 -7 -17 -9
-17 -3 0 15 54 53 59 40 2 -6 -3 -14 -10 -19z m391 6 c10 -12 10 -15 -3 -15
-8 0 -20 7 -27 15 -10 12 -10 15 3 15 8 0 20 -7 27 -15z m4 -50 c-18 -58 -77
-225 -79 -223 -4 4 13 192 20 235 5 30 7 31 35 20 24 -9 29 -16 24 -32z m-297
21 c-4 -9 -1 -13 7 -10 7 3 29 -26 56 -73 24 -43 52 -93 64 -112 11 -19 15
-31 9 -28 -20 13 -158 189 -155 198 1 5 -5 12 -15 16 -15 6 -15 7 3 14 29 12
37 10 31 -5z m390 -9 c3 -4 0 -7 -8 -7 -11 0 -11 -2 -1 -9 10 -6 -6 -35 -63
-117 -43 -60 -74 -98 -70 -84 36 117 72 206 83 202 7 -2 10 2 6 12 -4 11 1 14
20 12 14 -1 29 -6 33 -9z m3273 -8 c13 -7 12 -8 -2 -9 -9 0 -20 -5 -24 -12 -5
-8 0 -9 15 -5 18 4 16 -1 -16 -42 -110 -136 -197 -240 -200 -237 -2 1 30 70
69 153 47 96 78 149 86 146 8 -3 10 1 6 12 -5 13 -2 15 22 9 16 -4 36 -10 44
-15z m-3840 -9 c0 -5 -4 -10 -10 -10 -5 0 -10 5 -10 10 0 6 5 10 10 10 6 0 10
-4 10 -10z m3165 -20 c-4 -11 -2 -20 4 -20 6 0 11 7 11 15 0 8 5 15 10 15 6 0
10 -7 10 -16 0 -8 4 -13 9 -9 9 5 251 -285 251 -300 0 -3 -55 43 -123 102 -67
60 -139 122 -160 140 -20 18 -37 37 -37 42 0 5 -9 13 -21 16 -21 7 -21 7 2 20
36 20 51 18 44 -5z m-3195 0 c0 -5 -4 -10 -10 -10 -5 0 -10 5 -10 10 0 6 5 10
10 10 6 0 10 -4 10 -10z m3960 -14 l32 -13 -28 -7 c-18 -5 -24 -10 -16 -15 8
-5 -33 -45 -120 -117 -173 -143 -182 -149 -122 -79 27 33 83 100 124 149 62
76 75 86 81 70 7 -17 8 -17 8 4 1 26 0 26 41 8z m-3980 -6 c13 -8 12 -10 -2
-10 -10 0 -18 -4 -18 -10 0 -5 8 -6 17 -3 13 5 15 2 10 -12 -6 -15 -5 -16 8
-5 12 10 15 10 15 -1 0 -12 2 -12 9 0 7 11 47 -10 184 -99 l175 -112 54 -86
c29 -47 62 -102 73 -121 11 -19 27 -41 35 -48 10 -9 11 -12 3 -13 -7 0 -13 -5
-13 -10 0 -6 8 -10 18 -8 13 2 16 -3 14 -22 -4 -30 -70 -328 -71 -319 -6 44
-28 301 -29 322 0 23 3 27 19 22 11 -4 19 -2 19 4 0 6 -10 11 -22 11 -21 0
-21 0 -2 16 18 14 18 15 -5 8 -21 -5 -23 -3 -18 15 3 11 1 21 -4 21 -5 0 -9
-9 -9 -20 0 -11 -3 -19 -7 -19 -5 1 -19 1 -33 0 -24 -2 -24 -2 -7 -16 18 -13
18 -14 -2 -24 -31 -17 -46 -14 -30 5 12 15 11 16 -10 9 -20 -6 -22 -4 -16 14
4 12 2 21 -4 21 -6 0 -11 -7 -11 -17 0 -14 -2 -14 -20 2 -21 19 -28 7 -8 -13
9 -9 7 -12 -12 -12 l-25 -1 28 -15 c18 -10 27 -23 28 -42 1 -21 2 -23 6 -7 5
19 13 1 99 -225 14 -36 21 -60 16 -55 -20 22 -192 255 -192 260 0 3 8 5 18 6
13 0 12 3 -5 11 -21 10 -22 12 -5 25 16 13 15 14 -5 8 -17 -5 -22 -1 -26 17
l-4 23 -10 -24 c-8 -20 -11 -21 -16 -8 -4 10 -12 17 -19 17 -9 0 -9 -3 0 -12
18 -18 14 -27 -10 -20 -14 3 -19 2 -14 -6 4 -7 15 -12 24 -12 16 -1 16 -2 0
-14 -24 -18 -23 -29 2 -16 17 9 20 8 20 -12 1 -21 2 -21 11 -5 9 15 25 -2 113
-120 57 -76 102 -139 100 -141 -1 -2 -45 33 -98 77 -53 45 -115 95 -139 112
-23 17 -41 35 -40 39 2 5 -7 12 -18 15 -20 7 -20 7 -2 21 17 14 17 15 -4 9
-19 -5 -23 -2 -24 17 -1 23 -1 23 -8 -2 l-7 -25 -13 23 c-7 13 -15 21 -18 19
-2 -3 1 -15 7 -27 11 -20 10 -21 -10 -15 -15 5 -20 4 -16 -4 4 -6 15 -11 24
-11 10 0 4 -9 -18 -25 -19 -14 -35 -25 -37 -25 -2 0 -1 11 3 25 4 15 2 25 -5
25 -6 0 -11 -10 -11 -22 -1 -21 -2 -22 -14 -5 -18 24 -29 21 -15 -4 10 -19 8
-20 -10 -14 -12 4 -21 2 -21 -4 0 -6 10 -11 22 -11 18 0 20 -2 9 -12 -27 -26
-212 208 -308 388 l-52 98 182 122 c100 68 184 123 187 123 3 0 12 -4 20 -9z
m210 -82 c61 -50 110 -92 110 -94 0 -2 -58 34 -130 79 -122 77 -157 107 -109
92 15 -5 19 -4 15 4 -16 25 10 7 114 -81z m549 55 c1 20 12 22 28 6 9 -9 6
-16 -11 -30 -22 -17 -207 -129 -251 -151 -18 -9 -18 -9 -5 5 44 45 195 167
206 167 8 0 14 6 15 13 0 6 4 3 9 -8 7 -17 9 -17 9 -2z m3340 -40 c2 -1 -5 -6
-15 -10 -10 -4 -23 -11 -29 -16 -15 -12 -308 -177 -311 -174 -1 1 56 50 127
109 71 59 129 103 129 98 0 -18 20 -10 20 8 1 15 2 15 15 -2 15 -19 15 -19 15
4 0 23 0 23 23 4 12 -10 24 -20 26 -21z m65 -38 c3 -8 1 -15 -3 -15 -5 0 -11
7 -15 15 -3 8 -1 15 3 15 5 0 11 -7 15 -15z m-61 -12 c-4 -11 -3 -14 5 -9 7 4
19 3 28 -2 17 -10 13 -11 -246 -117 -74 -30 -135 -53 -136 -52 -3 3 339 196
348 197 4 0 4 -7 1 -17z m-2619 -378 c2 -7 -22 -63 -55 -126 -32 -63 -58 -109
-59 -104 0 6 9 48 20 95 11 47 22 95 25 108 3 13 10 20 15 17 5 -3 7 0 4 8 -4
10 2 15 20 15 14 0 27 -6 30 -13z m74 -19 c-10 -7 -15 -16 -12 -19 5 -5 -106
-157 -144 -197 -8 -8 12 37 44 101 42 83 63 115 73 111 9 -3 12 -1 7 6 -5 8 2
12 21 12 25 -1 26 -2 11 -14z m-870 -15 c11 -7 11 -9 -1 -14 -16 -6 -27 0 -27
15 0 10 11 10 28 -1z m-239 -18 c-1 -10 1 -25 4 -33 3 -8 10 -67 17 -130 6
-63 13 -126 16 -140 12 -54 -13 -2 -67 140 l-57 150 26 -6 c15 -4 24 -3 20 1
-5 5 2 14 15 21 30 16 29 16 26 -3z m339 -3 c12 0 13 -3 4 -12 -7 -7 -12 -19
-12 -28 0 -9 -8 -24 -18 -34 -18 -15 -20 -15 -35 2 -22 24 -12 69 11 50 13
-11 14 -10 7 11 -6 20 -4 23 10 18 9 -4 24 -7 33 -7z m907 0 c3 -5 1 -10 -4
-10 -6 0 -11 5 -11 10 0 6 2 10 4 10 3 0 8 -4 11 -10z m-995 -10 c0 -5 -5 -10
-11 -10 -5 0 -7 5 -4 10 3 6 8 10 11 10 2 0 4 -4 4 -10z m973 -13 c19 5 20 4
7 -9 -8 -8 -67 -50 -130 -93 l-115 -77 70 63 c38 35 86 78 105 96 19 17 36 28
38 23 2 -4 13 -6 25 -3z m-1040 -30 l25 -34 -59 -114 c-33 -63 -58 -107 -56
-99 2 8 17 75 33 148 16 72 29 132 30 132 1 0 13 -15 27 -33z m251 20 c16 -12
13 -17 -33 -60 -54 -50 -63 -54 -79 -34 -14 16 26 79 46 72 6 -2 12 3 12 12 0
13 2 14 17 2 15 -12 16 -12 10 4 -8 20 2 22 27 4z m111 -8 c-3 -4 -12 -6 -20
-3 -8 4 -13 10 -10 15 3 4 12 6 20 3 8 -4 13 -10 10 -15z m208 -139 c37 -29
67 -55 67 -57 0 -3 -102 51 -195 104 -22 13 -33 23 -25 24 9 0 7 4 -7 11 -21
10 -22 12 -5 24 14 10 23 8 57 -20 22 -18 70 -56 108 -86z m-290 83 c-6 -16
-5 -16 10 -4 14 11 17 11 17 0 0 -8 -25 -31 -56 -53 -43 -29 -58 -36 -67 -27
-9 9 -1 23 35 57 49 46 72 56 61 27z m-213 -45 c0 -10 -119 -168 -126 -168 -3
0 19 45 48 99 40 75 56 97 66 89 6 -6 12 -15 12 -20z m-615 2 c-4 -11 -2 -20
4 -20 6 0 11 7 11 16 0 13 3 14 13 5 8 -6 16 -9 19 -6 5 5 262 -198 274 -216
4 -6 -13 0 -37 14 -24 14 -100 55 -169 92 -69 37 -127 71 -130 75 -3 3 -13 10
-24 13 -17 7 -16 8 5 27 31 25 42 25 34 0z m906 -10 c5 0 9 8 9 18 0 13 2 14
9 3 5 -7 13 -11 17 -8 5 3 72 -30 149 -72 l140 -77 51 -124 c28 -69 145 -352
259 -630 114 -278 210 -512 212 -520 3 -8 -25 37 -62 100 -179 308 -350 542
-730 1000 -66 80 -140 168 -163 197 l-43 52 68 46 c52 34 69 42 71 30 2 -8 8
-15 13 -15z m-256 -37 c0 -5 -27 -34 -59 -64 -64 -58 -64 -53 -1 29 36 47 60
62 60 35z m-736 -19 c1 15 4 16 15 7 8 -7 16 -8 18 -2 1 5 103 -46 225 -112
202 -111 225 -127 264 -177 76 -97 267 -281 554 -531 154 -134 307 -270 340
-302 l60 -58 -55 39 c-30 21 -165 114 -300 207 -425 291 -698 503 -945 731
-172 160 -209 200 -199 215 6 10 10 7 15 -11 5 -18 7 -20 8 -6z m770 -27 c-2
-2 -33 -23 -69 -46 l-65 -42 60 55 c37 34 64 51 69 46 5 -6 8 -11 5 -13z m212
-249 c288 -347 307 -372 416 -518 149 -200 397 -590 376 -590 -3 0 -42 35 -87
78 -45 42 -245 223 -446 402 -374 332 -715 659 -709 679 3 8 246 181 255 181
1 0 89 -105 195 -232z m1552 138 c4 -10 1 -13 -9 -9 -7 3 -14 9 -14 14 0 14
17 10 23 -5z m-19 -36 c-22 -9 -29 -6 -20 9 4 6 14 7 23 4 15 -6 14 -7 -3 -13z
m22 -97 c-2 -49 -4 -124 -5 -167 0 -44 -5 -76 -9 -70 -5 5 -21 67 -35 137 -29
138 -27 160 16 177 12 5 25 9 29 9 3 1 5 -38 4 -86z m244 56 c13 -7 12 -8 -2
-9 -9 0 -20 -5 -24 -11 -4 -8 1 -9 17 -4 l23 8 -25 -34 c-14 -19 -60 -82 -103
-141 -43 -60 -79 -108 -81 -108 -1 0 23 65 54 145 38 100 60 143 69 140 9 -3
11 1 7 15 -6 19 -3 20 22 14 15 -4 35 -10 43 -15z m80 -30 l33 -12 -24 -13
c-13 -7 -18 -13 -10 -14 7 0 -29 -40 -80 -88 -177 -167 -181 -169 -85 -37 123
169 117 162 123 148 3 -7 9 -13 14 -13 6 0 5 8 -1 20 -13 23 -13 23 30 9z
m-704 -36 c-5 -24 -4 -26 6 -12 17 21 34 11 102 -59 58 -62 59 -62 47 -81 -8
-12 -25 -3 -88 44 -43 32 -88 68 -100 79 l-22 21 27 17 c35 23 35 23 28 -9z
m822 -29 c3 -2 -43 -32 -213 -142 l-110 -72 114 110 c63 60 118 107 122 104 4
-2 12 4 18 13 10 17 10 17 11 1 0 -10 5 -18 11 -18 6 0 8 9 3 23 l-7 22 24
-20 c13 -11 25 -20 27 -21z m-505 -106 c13 -60 23 -108 21 -108 -2 0 -22 36
-44 79 -39 79 -40 80 -23 118 9 21 17 34 19 28 2 -5 14 -58 27 -117z m486 32
c-26 -31 -64 -55 -159 -101 -68 -33 -121 -57 -117 -52 14 14 302 200 306 197
2 -2 -12 -21 -30 -44z m-513 -102 c13 -26 24 -50 24 -53 0 -3 -20 17 -45 45
-50 56 -48 52 -38 76 6 16 7 15 20 -2 8 -10 25 -40 39 -66z m-13 -53 c21 -28
19 -28 -26 9 -26 21 -47 45 -47 54 0 19 39 -15 73 -63z m379 -2 c-87 -99 -806
-805 -781 -766 8 12 127 169 266 350 l251 328 154 72 c84 40 155 73 156 73 2
0 -19 -26 -46 -57z m-397 -25 l64 -51 -48 -61 c-26 -34 -114 -149 -196 -256
-81 -107 -154 -202 -161 -210 -8 -7 25 74 72 180 47 107 110 252 141 323 31
70 58 127 60 127 2 0 33 -23 68 -52z m-4005 -208 c13 -9 13 -10 0 -10 -9 0
-11 -3 -4 -8 6 -4 -5 -40 -34 -102 -24 -52 -41 -81 -39 -65 30 183 31 184 44
173 11 -8 12 -7 7 6 -7 18 3 21 26 6z m93 -21 c12 0 16 -3 10 -6 -7 -2 -13 -9
-13 -14 0 -6 6 -7 13 -3 6 4 -11 -17 -38 -47 -28 -30 -66 -73 -85 -96 -18 -24
-35 -41 -37 -39 -5 5 62 159 83 191 10 15 23 24 31 21 8 -4 24 -6 36 -7z
m9647 -2379 c0 -5 7 -10 15 -10 13 0 11 -7 -7 -33 -31 -46 -112 -136 -106
-117 47 129 63 159 77 147 12 -10 14 -9 8 6 -3 9 -2 17 3 17 6 0 10 -4 10 -10z
m685 -150 c3 -5 -1 -10 -10 -10 -9 0 -13 5 -10 10 3 6 8 10 10 10 2 0 7 -4 10
-10z m5 -30 c0 -5 -6 -10 -12 -10 -9 0 -10 -2 -2 -8 8 -5 -1 -36 -29 -99 -22
-51 -41 -92 -43 -90 -4 4 32 193 40 205 9 15 46 16 46 2z m95 -20 c3 -5 1 -10
-5 -10 -6 0 -9 -4 -6 -8 4 -7 -94 -135 -140 -182 -9 -8 0 21 19 65 60 139 58
136 75 122 13 -10 15 -9 9 6 -5 13 -1 17 18 17 13 0 27 -4 30 -10z"/>
<path d="M4010 10141 c0 -5 5 -13 10 -16 6 -3 10 -2 10 4 0 5 -4 13 -10 16 -5
3 -10 2 -10 -4z"/>
<path d="M3885 10040 c-3 -5 -2 -10 4 -10 5 0 13 5 16 10 3 6 2 10 -4 10 -5 0
-13 -4 -16 -10z"/>
<path d="M5025 10160 c-3 -5 -1 -10 4 -10 6 0 11 5 11 10 0 6 -2 10 -4 10 -3
0 -8 -4 -11 -10z"/>
<path d="M4960 10119 c0 -5 5 -7 10 -4 6 3 10 8 10 11 0 2 -4 4 -10 4 -5 0
-10 -5 -10 -11z"/>
<path d="M4585 10060 c3 -5 8 -10 11 -10 2 0 4 5 4 10 0 6 -5 10 -11 10 -5 0
-7 -4 -4 -10z"/>
<path d="M1305 9370 c3 -5 8 -10 11 -10 2 0 4 5 4 10 0 6 -5 10 -11 10 -5 0
-7 -4 -4 -10z"/>
<path d="M1125 9320 c-3 -5 -1 -10 4 -10 6 0 11 5 11 10 0 6 -2 10 -4 10 -3 0
-8 -4 -11 -10z"/>
<path d="M1975 9120 c-3 -5 -1 -10 4 -10 6 0 11 5 11 10 0 6 -2 10 -4 10 -3 0
-8 -4 -11 -10z"/>
<path d="M291 9104 c0 -11 3 -14 6 -6 3 7 2 16 -1 19 -3 4 -6 -2 -5 -13z"/>
<path d="M255 9100 c3 -5 8 -10 11 -10 2 0 4 5 4 10 0 6 -5 10 -11 10 -5 0 -7
-4 -4 -10z"/>
<path d="M2055 9100 c-3 -5 -1 -10 4 -10 6 0 11 5 11 10 0 6 -2 10 -4 10 -3 0
-8 -4 -11 -10z"/>
<path d="M240 9078 c0 -5 5 -8 11 -8 8 0 7 -6 -2 -16 -12 -15 -11 -16 9 -10
18 6 21 4 16 -11 -5 -16 -3 -16 13 2 10 11 27 19 38 17 19 -3 19 -2 1 9 -13 8
-15 14 -7 19 7 3 -9 6 -34 6 -25 -1 -45 -4 -45 -8z"/>
<path d="M1910 9079 c0 -5 5 -7 10 -4 6 3 10 8 10 11 0 2 -4 4 -10 4 -5 0 -10
-5 -10 -11z"/>
<path d="M2205 9030 c3 -5 8 -10 11 -10 2 0 4 5 4 10 0 6 -5 10 -11 10 -5 0
-7 -4 -4 -10z"/>
<path d="M2295 8860 c3 -5 8 -10 11 -10 2 0 4 5 4 10 0 6 -5 10 -11 10 -5 0
-7 -4 -4 -10z"/>
<path d="M10785 6650 c-3 -5 -1 -10 4 -10 6 0 11 5 11 10 0 6 -2 10 -4 10 -3
0 -8 -4 -11 -10z"/>
<path d="M10918 6653 c7 -3 16 -2 19 1 4 3 -2 6 -13 5 -11 0 -14 -3 -6 -6z"/>
<path d="M11420 6645 c-7 -8 -8 -15 -2 -15 5 0 15 7 22 15 7 8 8 15 2 15 -5 0
-15 -7 -22 -15z"/>
<path d="M11845 6620 c3 -5 8 -10 11 -10 2 0 4 5 4 10 0 6 -5 10 -11 10 -5 0
-7 -4 -4 -10z"/>
<path d="M11350 6599 c0 -5 5 -7 10 -4 6 3 10 8 10 11 0 2 -4 4 -10 4 -5 0
-10 -5 -10 -11z"/>
<path d="M12235 6550 c3 -5 8 -10 11 -10 2 0 4 5 4 10 0 6 -5 10 -11 10 -5 0
-7 -4 -4 -10z"/>
<path d="M12575 6500 c-3 -5 -1 -10 4 -10 6 0 11 5 11 10 0 6 -2 10 -4 10 -3
0 -8 -4 -11 -10z"/>
</g>
</svg>
