<svg xmlns="http://www.w3.org/2000/svg" width="48" height="48"><g transform="translate(0 -1004.362)"><circle cx="24" cy="1028.362" r="24" fill="#ef4c45" fill-rule="evenodd"/><path style="line-height:normal;-inkscape-font-specification:Sans;text-indent:0;text-align:start;text-decoration-line:none;text-transform:none;block-progression:tb;marker:none" fill="#df2209" d="M22.389 47.92A24 24 0 0 0 24 48a24 24 0 0 0 1.697-.06 24 24 0 0 0 2.383-.29 24 24 0 0 0 2.34-.525 24 24 0 0 0 2.277-.756 24 24 0 0 0 2.19-.98 24 24 0 0 0 2.08-1.194 24 24 0 0 0 1.951-1.394 24 24 0 0 0 1.803-1.584 24 24 0 0 0 1.634-1.756 24 24 0 0 0 1.454-1.91 24 24 0 0 0 1.254-2.045 24 24 0 0 0 1.042-2.16 24 24 0 0 0 .823-2.254 24 24 0 0 0 .593-2.324 24 24 0 0 0 .36-2.372A24 24 0 0 0 48 24a24 24 0 0 0-.06-1.697 24 24 0 0 0-.12-.983l-8.445-8.445a.5.5 0 0 0 .018-.668l8.332 8.332a24 24 0 0 0-.073-.605L36.875 9.156a.5.5 0 0 0-.406-.187.5.5 0 0 0-.063 0 .5.5 0 0 0-.437.5v.906l-.836-.836a.5.5 0 0 0-.504-.504l-.004-.004H24.5l.004.004H24.5a.5.5 0 0 0-.1-.01.5.5 0 0 0-.056.01.5.5 0 0 0-.344.498.5.5 0 0 0 0 .002v7.496H9.5l.004.004H9.5a.5.5 0 0 0-.156 0 .5.5 0 0 0-.344.498.5.5 0 0 0 0 .002v17a.5.5 0 0 0 .5.5h.004L22.389 47.92z" color="#000" font-family="Sans" font-weight="400" transform="translate(0 1004.362)"/><path style="line-height:normal;-inkscape-font-specification:Sans;text-indent:0;text-align:start;text-decoration-line:none;text-transform:none;block-progression:tb;marker:none" fill="#fff" d="M28.406.938a.5.5 0 0 0-.437.5V4.5a.5.5 0 0 0 .5.5H31a.5.5 0 0 0 .375-.844l-2.5-3.031a.5.5 0 0 0-.406-.188.5.5 0 0 0-.063 0zM16.344 1a.5.5 0 0 0-.344.5V9H1.5a.5.5 0 0 0-.156 0A.5.5 0 0 0 1 9.5v17a.5.5 0 0 0 .5.5H10v3H7v1h14v-1h-3v-3h8.5a.5.5 0 0 0 .5-.5v-9h-1V23H2V10h14v6.469a.5.5 0 0 0 .5.5h2.094l3 2.906a.5.5 0 0 0 .843-.375v-2.531H30.5a.5.5 0 0 0 .5-.5V6.063a.5.5 0 1 0-1 0v9.906h-8.063a.5.5 0 0 0-.5.5v1.875l-2.25-2.219a.5.5 0 0 0-.343-.156h-.563a.5.5 0 0 0-.031 0H17V2h9.625a.5.5 0 1 0 0-1H16.5a.5.5 0 0 0-.156 0Zm12.625 1.844L29.937 4h-.968V2.844zM19 4v1h7V4h-7zm0 3v1h9V7h-9zm0 3v1h9v-1h-9zm0 3v1h9v-1h-9zM2 24h24v2H2v-2Zm9 3h6v3h-6v-3z" color="#000" font-family="Sans" font-weight="400" overflow="visible" transform="translate(8 1012.394)"/></g></svg>