<?xml version="1.0" encoding="iso-8859-1"?>
<!-- Generator: Adobe Illustrator 19.0.0, SVG Export Plug-In . SVG Version: 6.00 Build 0)  -->
<svg version="1.1" id="Layer_1" xmlns="http://www.w3.org/2000/svg" xmlns:xlink="http://www.w3.org/1999/xlink" x="0px" y="0px"
	 viewBox="0 0 512 512" style="enable-background:new 0 0 512 512;" xml:space="preserve">
<g>
	<g>
		<path d="M256,32C114.837,32,0,113.344,0,213.333c0,51.435,30.613,100.096,84.245,134.464
			c-5.995,22.891-37.525,70.272-57.877,97.173c-0.064,0.107-0.149,0.192-0.213,0.299c-3.115,3.819-4.821,8.533-4.821,13.397
			c0,11.755,9.579,21.333,21.333,21.333c2.923,0,5.845-0.683,8.725-2.005c27.776-7.893,115.669-35.84,166.336-85.483
			c13.355,1.451,25.941,2.155,38.272,2.155c141.163,0,256-81.344,256-181.333S397.163,32,256,32z"/>
	</g>
</g>
<g>
</g>
<g>
</g>
<g>
</g>
<g>
</g>
<g>
</g>
<g>
</g>
<g>
</g>
<g>
</g>
<g>
</g>
<g>
</g>
<g>
</g>
<g>
</g>
<g>
</g>
<g>
</g>
<g>
</g>
</svg>
